<svg xmlns="http://www.w3.org/2000/svg" xmlns:xlink="http://www.w3.org/1999/xlink" width="277" height="276" viewBox="0 0 277 276"><defs><path id="3l1ca" d="M131.86 3224.71c0-41.48 33.68-75.1 75.23-75.1 41.55 0 75.23 33.62 75.23 75.1s-33.68 75.1-75.23 75.1c-41.55 0-75.23-33.62-75.23-75.1z"/><path id="3l1cb" d="M146.53 3223.82a60.5 60.5 0 0 1 60.55-60.45 60.5 60.5 0 0 1 60.56 60.45 60.5 60.5 0 0 1-60.55 60.45 60.5 60.5 0 0 1-60.56-60.45z"/><path id="3l1cc" d="M95.32 3246.36a9.04 9.04 0 1 1 18.09.01 9.04 9.04 0 0 1-18.09-.01z"/><path id="3l1cd" d="M295.2 3220.41a6.12 6.12 0 1 1 12.24.02 6.12 6.12 0 0 1-12.24-.01z"/><path id="3l1ce" d="M67.65 3224.67c0-76.02 61.74-137.65 137.89-137.65 76.15 0 137.89 61.63 137.89 137.65 0 76.02-61.74 137.65-137.89 137.65-76.15 0-137.89-61.63-137.89-137.65z"/><path id="3l1cf" d="M103.86 3224.67c0-56.06 45.52-101.5 101.67-101.5 56.16 0 101.68 45.44 101.68 101.5s-45.52 101.5-101.67 101.5c-56.16 0-101.68-45.44-101.68-101.5z"/><path id="3l1cg" d="M273.14 3308.13v-7.04H266v-4.43h7.14v-7.36h4.43v7.36h7.26v4.43h-7.26v7.04z"/><path id="3l1ch" d="M295.71 3284.99v-11.01h-11.15v-6.91h11.15v-11.5h6.92v11.5h11.34v6.91h-11.34v11.01z"/><path id="3l1ci" d="M84.99 3208.17v-7.04h-7.14v-4.43h7.14v-7.36h4.43v7.36h7.26v4.43h-7.26v7.04z"/><path id="3l1cj" d="M107.56 3185.03v-11.01H96.41v-6.91h11.15v-11.5h6.92v11.5h11.34v6.91h-11.34v11.01z"/><path id="3l1ck" d="M160.64 3109.01h34.18c3.7 0 7.67 3 8.86 6.7l23.73 73.59c1.2 3.7-.84 6.7-4.54 6.7h-34.18c-3.7 0-7.67-3-8.86-6.7l-23.74-73.6c-1.2-3.7.84-6.69 4.55-6.69z"/><path id="3l1cl" d="M195.42 3112.77c0-.75.88-1.35 1.96-1.35s1.96.6 1.96 1.35c0 .75-.88 1.35-1.96 1.35s-1.96-.6-1.96-1.35z"/><path id="3l1cm" d="M197.24 3115.35h1.66c.74 0 1.57.6 1.84 1.34l20.9 56.2c.28.74-.1 1.34-.83 1.34h-1.67c-.74 0-1.56-.6-1.83-1.34l-20.91-56.2c-.28-.74.1-1.34.84-1.34z"/><path id="3l1cn" d="M253.63 3109.01h-34.18c-3.7 0-7.67 3-8.86 6.7l-23.74 73.59c-1.2 3.7.84 6.7 4.55 6.7h34.18c3.7 0 7.67-3 8.86-6.7l23.73-73.6c1.2-3.7-.84-6.69-4.54-6.69z"/><path id="3l1co" d="M131.56 3224.71c0-41.48 33.68-75.1 75.23-75.1 41.55 0 75.23 33.62 75.23 75.1s-33.68 75.1-75.23 75.1c-41.55 0-75.23-33.62-75.23-75.1z"/><path id="3l1cp" d="M216.84 3254.04a6.78 6.78 0 0 1-6.85 6.65 6.74 6.74 0 0 1-6.67-6.65v-39.9l-7.13 7.3a5.19 5.19 0 0 1-3.71 1.53 5.68 5.68 0 0 1-5.62-5.6c0-1.43.57-2.86 1.71-4l14.66-14.82a8.15 8.15 0 0 1 5.71-2.28c4.28 0 7.9 3.42 7.9 7.7z"/><path id="3l1cq" d="M154.97 3273.66s29.06 25.5 59.65 22.75c30.6-2.76 51.6-29.11 51.6-29.11s-24.46 18.73-54.28 20.07c-29.83 1.34-56.97-13.71-56.97-13.71z"/><path id="3l1cr" d="M159.98 3187.16s25.4-22.5 52.15-20.08c26.74 2.43 45.12 25.69 45.12 25.69s-21.39-16.53-47.46-17.72c-26.08-1.18-49.81 12.11-49.81 12.11z"/><path id="3l1cs" d="M154.97 3158.71c0-1.1.9-2 2-2h102.69v23.05a2 2 0 0 1-2 2H156.97a2 2 0 0 1-2-2z"/><path id="3l1cv" d="M198.17 3214.3c0-2.95 1.65-5.35 3.69-5.35 2.03 0 3.68 2.4 3.68 5.36 0 2.95-1.65 5.35-3.69 5.35-2.03 0-3.68-2.4-3.68-5.36z"/><path id="3l1cw" d="M216.84 3248.74a6.78 6.78 0 0 1-6.85 6.65 6.74 6.74 0 0 1-6.67-6.65v-39.9l-7.13 7.3a5.19 5.19 0 0 1-3.71 1.53 5.68 5.68 0 0 1-5.62-5.6c0-1.43.57-2.86 1.71-4l14.66-14.82a8.15 8.15 0 0 1 5.71-2.28c4.28 0 7.9 3.42 7.9 7.7z"/><clipPath id="3l1ct"><use fill="#fff" xlink:href="#3l1ca"/></clipPath><clipPath id="3l1cu"><use fill="#fff" xlink:href="#3l1cb"/></clipPath><clipPath id="3l1cx"><use fill="#fff" xlink:href="#3l1cc"/></clipPath><clipPath id="3l1cy"><use fill="#fff" xlink:href="#3l1cd"/></clipPath></defs><g><g transform="translate(-67 -3087)"><g><g><g><g><use fill="#e9e9e9" xlink:href="#3l1ce"/></g><g><use fill="#f5f5f5" xlink:href="#3l1cf"/></g></g><g><use fill="#fdd800" xlink:href="#3l1cg"/></g><g><use fill="#fdd800" xlink:href="#3l1ch"/></g></g></g><g><g><g><use fill="#fdd800" xlink:href="#3l1ci"/></g><g><use fill="#fdd800" xlink:href="#3l1cj"/></g></g></g><g><g><use fill="#54bbff" xlink:href="#3l1ck"/></g><g><g><use fill="#1a6ea7" xlink:href="#3l1cl"/></g><g><use fill="#1a6ea7" xlink:href="#3l1cm"/></g></g><g><use fill="#348eca" xlink:href="#3l1cn"/></g></g><g><g><use fill="#fdd800" xlink:href="#3l1co"/></g><g><g opacity=".53"><use fill="#8c6a2c" xlink:href="#3l1cp"/></g><g opacity=".53"><use fill="#8c6a2c" xlink:href="#3l1cq"/></g><g opacity=".53"><use fill="#8c6a2c" xlink:href="#3l1cr"/></g><g><use fill="#fff" xlink:href="#3l1cs"/></g></g><g><use fill="#fff" fill-opacity="0" stroke="#292934" stroke-miterlimit="50" stroke-width="16" clip-path="url(&quot;#3l1ct&quot;)" xlink:href="#3l1ca"/></g><g><use fill="#fff" fill-opacity="0" stroke="#292934" stroke-miterlimit="50" stroke-width="16" clip-path="url(&quot;#3l1cu&quot;)" xlink:href="#3l1cb"/></g></g><g><use fill="#fff" xlink:href="#3l1cv"/></g><g><use fill="#292934" xlink:href="#3l1cw"/></g><g opacity=".59"><use fill="#fff" fill-opacity="0" stroke="#979797" stroke-miterlimit="50" stroke-width="8" clip-path="url(&quot;#3l1cx&quot;)" xlink:href="#3l1cc"/></g><g opacity=".59"><use fill="#fff" fill-opacity="0" stroke="#979797" stroke-miterlimit="50" stroke-width="8" clip-path="url(&quot;#3l1cy&quot;)" xlink:href="#3l1cd"/></g></g></g></svg>