<svg xmlns="http://www.w3.org/2000/svg" xmlns:xlink="http://www.w3.org/1999/xlink" width="277" height="276" viewBox="0 0 277 276"><defs><path id="2z25a" d="M492.68 3224.71c0-41.48 33.68-75.1 75.23-75.1 41.55 0 75.23 33.62 75.23 75.1s-33.68 75.1-75.23 75.1c-41.55 0-75.23-33.62-75.23-75.1z"/><path id="2z25b" d="M507.35 3223.82a60.5 60.5 0 0 1 60.55-60.45 60.5 60.5 0 0 1 60.56 60.45 60.5 60.5 0 0 1-60.56 60.45 60.5 60.5 0 0 1-60.55-60.45z"/><path id="2z25c" d="M456.14 3246.36a9.04 9.04 0 1 1 18.09.01 9.04 9.04 0 0 1-18.09-.01z"/><path id="2z25d" d="M656.01 3220.41a6.12 6.12 0 1 1 12.24.02 6.12 6.12 0 0 1-12.24-.01z"/><path id="2z25e" d="M428.47 3224.67c0-76.02 61.74-137.65 137.89-137.65 76.15 0 137.89 61.63 137.89 137.65 0 76.02-61.74 137.65-137.89 137.65-76.15 0-137.89-61.63-137.89-137.65z"/><path id="2z25f" d="M464.68 3224.67c0-56.06 45.52-101.5 101.67-101.5 56.16 0 101.68 45.44 101.68 101.5s-45.52 101.5-101.67 101.5c-56.16 0-101.68-45.44-101.68-101.5z"/><path id="2z25g" d="M633.96 3308.13v-7.04h-7.14v-4.43h7.14v-7.36h4.43v7.36h7.26v4.43h-7.26v7.04z"/><path id="2z25h" d="M656.53 3284.99v-11.01h-11.15v-6.91h11.15v-11.5h6.92v11.5h11.34v6.91h-11.34v11.01z"/><path id="2z25i" d="M445.81 3208.17v-7.04h-7.14v-4.43h7.14v-7.36h4.43v7.36h7.26v4.43h-7.26v7.04z"/><path id="2z25j" d="M468.38 3185.03v-11.01h-11.15v-6.91h11.15v-11.5h6.92v11.5h11.34v6.91H475.3v11.01z"/><path id="2z25k" d="M521.46 3109.01h34.18c3.7 0 7.67 3 8.86 6.7l23.73 73.59c1.2 3.7-.84 6.7-4.54 6.7H549.5c-3.7 0-7.67-3-8.86-6.7l-23.74-73.6c-1.2-3.7.84-6.69 4.55-6.69z"/><path id="2z25l" d="M556.23 3112.77c0-.75.88-1.35 1.96-1.35s1.96.6 1.96 1.35c0 .75-.88 1.35-1.96 1.35s-1.96-.6-1.96-1.35z"/><path id="2z25m" d="M558.06 3115.35h1.66c.74 0 1.57.6 1.84 1.34l20.9 56.2c.28.74-.1 1.34-.83 1.34h-1.67c-.74 0-1.56-.6-1.83-1.34l-20.91-56.2c-.28-.74.1-1.34.84-1.34z"/><path id="2z25n" d="M614.45 3109.01h-34.18c-3.7 0-7.67 3-8.86 6.7l-23.74 73.59c-1.2 3.7.84 6.7 4.55 6.7h34.18c3.7 0 7.67-3 8.86-6.7l23.73-73.6c1.2-3.7-.84-6.69-4.54-6.69z"/><path id="2z25o" d="M492.38 3224.71c0-41.48 33.68-75.1 75.23-75.1 41.55 0 75.23 33.62 75.23 75.1s-33.68 75.1-75.23 75.1c-41.55 0-75.23-33.62-75.23-75.1z"/><path id="2z25p" d="M515.79 3273.66s29.06 25.5 59.65 22.75c30.6-2.76 51.6-29.11 51.6-29.11s-24.46 18.73-54.28 20.07c-29.83 1.34-56.97-13.71-56.97-13.71z"/><path id="2z25q" d="M520.8 3187.16s25.4-22.5 52.15-20.08c26.74 2.43 45.12 25.69 45.12 25.69s-21.39-16.53-47.46-17.72c-26.08-1.18-49.81 12.11-49.81 12.11z"/><path id="2z25r" d="M515.79 3158.71c0-1.1.9-2 2-2h102.69v23.05a2 2 0 0 1-2 2H517.79a2 2 0 0 1-2-2z"/><path id="2z25w" d="M594.4 3248.56a5.82 5.82 0 0 1-5.7 5.92h-36.05a6.33 6.33 0 0 1-6.26-6.39 6.94 6.94 0 0 1 2.8-5.55c23.26-17.02 30.73-23.77 30.73-30.99 0-5.36-4.95-8.04-10.08-8.04-4.96 0-9.25 1.38-12.8 3.79a6.47 6.47 0 0 1-3.83 1.2 5.9 5.9 0 0 1-5.8-5.92c0-.92.29-1.85.85-2.68 2.99-4.72 13.45-8.05 21.3-8.05 13.26 0 23.81 7.4 23.81 19.7 0 10.55-8.78 19.7-24.94 31.36h20.27c3.09 0 5.7 2.6 5.7 5.65z"/><path id="2z25x" d="M575.67 3204.41c0-4.4 1.27-7.95 2.84-7.95 1.57 0 2.84 3.56 2.84 7.95 0 4.4-1.27 7.95-2.84 7.95-1.57 0-2.84-3.56-2.84-7.95z"/><path id="2z25y" d="M565.06 3237.97c0-1.47 3.32-2.66 7.42-2.66s7.43 1.2 7.43 2.66c0 1.47-3.32 2.66-7.43 2.66-4.1 0-7.42-1.2-7.42-2.66z"/><path id="2z25z" d="M594.4 3244.43a5.82 5.82 0 0 1-5.7 5.92h-36.05a6.33 6.33 0 0 1-6.26-6.39 6.94 6.94 0 0 1 2.8-5.55c23.26-17.02 30.73-23.77 30.73-30.99 0-5.36-4.95-8.04-10.08-8.04-4.96 0-9.25 1.38-12.8 3.79a6.47 6.47 0 0 1-3.83 1.2 5.9 5.9 0 0 1-5.8-5.92c0-.92.29-1.85.85-2.68 2.99-4.72 13.45-8.05 21.3-8.05 13.26 0 23.81 7.4 23.81 19.7 0 10.55-8.78 19.7-24.94 31.36h20.27c3.09 0 5.7 2.6 5.7 5.65z"/><clipPath id="2z25s"><use fill="#fff" xlink:href="#2z25a"/></clipPath><clipPath id="2z25t"><use fill="#fff" xlink:href="#2z25b"/></clipPath><clipPath id="2z25u"><use fill="#fff" xlink:href="#2z25c"/></clipPath><clipPath id="2z25v"><use fill="#fff" xlink:href="#2z25d"/></clipPath></defs><g><g transform="translate(-428 -3087)"><g><g><g><g><use fill="#e9e9e9" xlink:href="#2z25e"/></g><g><use fill="#f5f5f5" xlink:href="#2z25f"/></g></g><g><use fill="#fdd800" xlink:href="#2z25g"/></g><g><use fill="#fdd800" xlink:href="#2z25h"/></g></g></g><g><g><g><use fill="#fdd800" xlink:href="#2z25i"/></g><g><use fill="#fdd800" xlink:href="#2z25j"/></g></g></g><g><g><use fill="#ff7f66" xlink:href="#2z25k"/></g><g><g><use fill="#e81a1a" xlink:href="#2z25l"/></g><g><use fill="#e81a1a" xlink:href="#2z25m"/></g></g><g><use fill="#ff4141" xlink:href="#2z25n"/></g></g><g><g><use fill="#fdd800" xlink:href="#2z25o"/></g><g><g opacity=".53"><use fill="#8c6a2c" xlink:href="#2z25p"/></g><g opacity=".53"><use fill="#8c6a2c" xlink:href="#2z25q"/></g><g><use fill="#fff" xlink:href="#2z25r"/></g></g><g><use fill="#fff" fill-opacity="0" stroke="#292934" stroke-miterlimit="50" stroke-width="16" clip-path="url(&quot;#2z25s&quot;)" xlink:href="#2z25a"/></g><g><use fill="#fff" fill-opacity="0" stroke="#292934" stroke-miterlimit="50" stroke-width="16" clip-path="url(&quot;#2z25t&quot;)" xlink:href="#2z25b"/></g></g><g opacity=".59"><use fill="#fff" fill-opacity="0" stroke="#979797" stroke-miterlimit="50" stroke-width="8" clip-path="url(&quot;#2z25u&quot;)" xlink:href="#2z25c"/></g><g opacity=".59"><use fill="#fff" fill-opacity="0" stroke="#979797" stroke-miterlimit="50" stroke-width="8" clip-path="url(&quot;#2z25v&quot;)" xlink:href="#2z25d"/></g><g><g opacity=".89"><use fill="#c19d17" xlink:href="#2z25w"/></g><g><use fill="#fff" xlink:href="#2z25x"/></g><g><use fill="#fff" xlink:href="#2z25y"/></g><g><use fill="#292934" xlink:href="#2z25z"/></g></g></g></g></svg>