<svg xmlns="http://www.w3.org/2000/svg" xmlns:xlink="http://www.w3.org/1999/xlink" width="277" height="276" viewBox="0 0 277 276"><defs><path id="7ld8a" d="M858.5 3224.71c0-41.48 33.68-75.1 75.23-75.1 41.55 0 75.23 33.62 75.23 75.1s-33.68 75.1-75.23 75.1c-41.55 0-75.23-33.62-75.23-75.1z"/><path id="7ld8b" d="M873.17 3223.82a60.5 60.5 0 0 1 60.55-60.45 60.5 60.5 0 0 1 60.56 60.45 60.5 60.5 0 0 1-60.56 60.45 60.5 60.5 0 0 1-60.55-60.45z"/><path id="7ld8c" d="M821.96 3246.36a9.04 9.04 0 1 1 18.09.01 9.04 9.04 0 0 1-18.09-.01z"/><path id="7ld8d" d="M1021.83 3220.41a6.12 6.12 0 1 1 12.24.02 6.12 6.12 0 0 1-12.24-.01z"/><path id="7ld8e" d="M794.29 3224.67c0-76.02 61.74-137.65 137.89-137.65 76.15 0 137.89 61.63 137.89 137.65 0 76.02-61.74 137.65-137.89 137.65-76.15 0-137.89-61.63-137.89-137.65z"/><path id="7ld8f" d="M830.5 3224.67c0-56.06 45.52-101.5 101.67-101.5 56.16 0 101.68 45.44 101.68 101.5s-45.52 101.5-101.67 101.5c-56.16 0-101.68-45.44-101.68-101.5z"/><path id="7ld8g" d="M999.78 3308.13v-7.04h-7.14v-4.43h7.14v-7.36h4.43v7.36h7.26v4.43h-7.26v7.04z"/><path id="7ld8h" d="M1022.35 3284.99v-11.01h-11.15v-6.91h11.15v-11.5h6.92v11.5h11.34v6.91h-11.34v11.01z"/><path id="7ld8i" d="M811.63 3208.17v-7.04h-7.14v-4.43h7.14v-7.36h4.43v7.36h7.26v4.43h-7.26v7.04z"/><path id="7ld8j" d="M834.2 3185.03v-11.01h-11.15v-6.91h11.15v-11.5h6.92v11.5h11.34v6.91h-11.34v11.01z"/><path id="7ld8k" d="M887.28 3109.01h34.18c3.7 0 7.67 3 8.86 6.7l23.73 73.59c1.2 3.7-.84 6.7-4.54 6.7h-34.18c-3.7 0-7.67-3-8.86-6.7l-23.74-73.6c-1.2-3.7.84-6.69 4.55-6.69z"/><path id="7ld8l" d="M922.05 3112.77c0-.75.88-1.35 1.96-1.35s1.96.6 1.96 1.35c0 .75-.88 1.35-1.96 1.35s-1.96-.6-1.96-1.35z"/><path id="7ld8m" d="M923.88 3115.35h1.66c.74 0 1.57.6 1.84 1.34l20.9 56.2c.28.74-.1 1.34-.83 1.34h-1.67c-.74 0-1.56-.6-1.83-1.34l-20.91-56.2c-.28-.74.1-1.34.84-1.34z"/><path id="7ld8n" d="M980.26 3109.01h-34.18c-3.7 0-7.67 3-8.86 6.7l-23.74 73.59c-1.2 3.7.84 6.7 4.55 6.7h34.18c3.7 0 7.67-3 8.86-6.7l23.73-73.6c1.2-3.7-.84-6.69-4.54-6.69z"/><path id="7ld8o" d="M858.2 3224.71c0-41.48 33.68-75.1 75.23-75.1 41.55 0 75.23 33.62 75.23 75.1s-33.68 75.1-75.23 75.1c-41.55 0-75.23-33.62-75.23-75.1z"/><path id="7ld8p" d="M881.61 3273.66s29.06 25.5 59.65 22.75c30.6-2.76 51.6-29.11 51.6-29.11s-24.46 18.73-54.28 20.07c-29.83 1.34-56.97-13.71-56.97-13.71z"/><path id="7ld8q" d="M886.62 3187.16s25.4-22.5 52.15-20.08c26.74 2.43 45.12 25.69 45.12 25.69s-21.39-16.53-47.46-17.72c-26.08-1.18-49.81 12.11-49.81 12.11z"/><path id="7ld8r" d="M881.61 3158.71c0-1.1.9-2 2-2H986.3v23.05a2 2 0 0 1-2 2H883.61a2 2 0 0 1-2-2z"/><path id="7ld8w" d="M959.33 3239.65c0 10.51-9.43 17.92-24.09 17.92-8.8 0-19.15-3.29-21.99-8.05a4.6 4.6 0 0 1-.73-2.46c0-3.3 2.93-5.77 5.95-5.77 1.1 0 2.2.28 3.21.92 4.03 2.38 8.89 3.84 13.1 3.84 7.42 0 11.54-3.2 11.54-7.77 0-4.85-3.75-7.05-12.27-7.05-4.76.64-8.15-1.64-8.15-5.76 0-3.2 2.38-5.67 5.95-5.67 7.97.37 13.47-1.46 13.47-6.5 0-4.84-4.95-7.22-11.36-7.22-4.22 0-8.25 1.2-11.82 3.48a5.4 5.4 0 0 1-3.12.91c-2.84 0-5.68-2.28-5.68-5.48 0-1.47.65-2.93 1.93-3.94 5.04-4.02 11.63-6.49 20.06-6.49 14.3 0 23.09 6.4 23.09 16.55 0 7.69-6.6 12.72-13.38 13.9 6.23.64 14.3 5.5 14.3 14.64z"/><path id="7ld8x" d="M941.95 3209.9c0-3.58 1.03-6.48 2.29-6.48s2.29 2.9 2.29 6.49c0 3.58-1.03 6.48-2.29 6.48s-2.29-2.9-2.29-6.48z"/><path id="7ld8y" d="M943.63 3234.32c0-3.58 1.03-6.48 2.29-6.48s2.29 2.9 2.29 6.48c0 3.59-1.03 6.49-2.29 6.49s-2.29-2.9-2.29-6.49z"/><path id="7ld8z" d="M959.33 3236.64c0 10.51-9.43 17.92-24.09 17.92-8.8 0-19.15-3.29-21.99-8.05a4.6 4.6 0 0 1-.73-2.46c0-3.3 2.93-5.77 5.95-5.77 1.1 0 2.2.28 3.21.92 4.03 2.38 8.89 3.84 13.1 3.84 7.42 0 11.54-3.2 11.54-7.77 0-4.85-3.75-7.05-12.27-7.05-4.76.64-8.15-1.64-8.15-5.76 0-3.2 2.38-5.67 5.95-5.67 7.97.37 13.47-1.46 13.47-6.5 0-4.84-4.95-7.22-11.36-7.22-4.22 0-8.25 1.2-11.82 3.48a5.4 5.4 0 0 1-3.12.91c-2.84 0-5.68-2.28-5.68-5.48 0-1.47.65-2.93 1.93-3.94 5.04-4.02 11.63-6.49 20.06-6.49 14.3 0 23.09 6.4 23.09 16.55 0 7.69-6.6 12.72-13.38 13.9 6.23.64 14.3 5.5 14.3 14.64z"/><clipPath id="7ld8s"><use fill="#fff" xlink:href="#7ld8a"/></clipPath><clipPath id="7ld8t"><use fill="#fff" xlink:href="#7ld8b"/></clipPath><clipPath id="7ld8u"><use fill="#fff" xlink:href="#7ld8c"/></clipPath><clipPath id="7ld8v"><use fill="#fff" xlink:href="#7ld8d"/></clipPath></defs><g><g transform="translate(-794 -3087)"><g><g><g><g><use fill="#e9e9e9" xlink:href="#7ld8e"/></g><g><use fill="#f5f5f5" xlink:href="#7ld8f"/></g></g><g><use fill="#fdd800" xlink:href="#7ld8g"/></g><g><use fill="#fdd800" xlink:href="#7ld8h"/></g></g></g><g><g><g><use fill="#fdd800" xlink:href="#7ld8i"/></g><g><use fill="#fdd800" xlink:href="#7ld8j"/></g></g></g><g><g><use fill="#fff493" xlink:href="#7ld8k"/></g><g><g><use fill="#d2c700" xlink:href="#7ld8l"/></g><g><use fill="#d2c700" xlink:href="#7ld8m"/></g></g><g><use fill="#fff206" xlink:href="#7ld8n"/></g></g><g><g><use fill="#fdd800" xlink:href="#7ld8o"/></g><g><g opacity=".53"><use fill="#8c6a2c" xlink:href="#7ld8p"/></g><g opacity=".53"><use fill="#8c6a2c" xlink:href="#7ld8q"/></g><g><use fill="#fff" xlink:href="#7ld8r"/></g></g><g><use fill="#fff" fill-opacity="0" stroke="#292934" stroke-miterlimit="50" stroke-width="16" clip-path="url(&quot;#7ld8s&quot;)" xlink:href="#7ld8a"/></g><g><use fill="#fff" fill-opacity="0" stroke="#292934" stroke-miterlimit="50" stroke-width="16" clip-path="url(&quot;#7ld8t&quot;)" xlink:href="#7ld8b"/></g></g><g opacity=".59"><use fill="#fff" fill-opacity="0" stroke="#979797" stroke-miterlimit="50" stroke-width="8" clip-path="url(&quot;#7ld8u&quot;)" xlink:href="#7ld8c"/></g><g opacity=".59"><use fill="#fff" fill-opacity="0" stroke="#979797" stroke-miterlimit="50" stroke-width="8" clip-path="url(&quot;#7ld8v&quot;)" xlink:href="#7ld8d"/></g><g><g opacity=".21"><use fill="#292934" xlink:href="#7ld8w"/></g><g><use fill="#fff" xlink:href="#7ld8x"/></g><g><use fill="#fff" xlink:href="#7ld8y"/></g><g><use fill="#292934" xlink:href="#7ld8z"/></g></g></g></g></svg>