<svg id="Layer_1" xmlns="http://www.w3.org/2000/svg" viewBox="0 0 341.9 144"><style>.st0{fill:#353535}.st1{fill:#c53c02}.st2{fill:#751b00}.st3{fill:#265a8f}.st4{fill:#162f51}.st5{fill:#fdee00}.st6{fill:#ecc700}</style><g id="Layer_1_1_"><path class="st0" d="M17.1 126.2c.4.2.7.4 1 .6.3.3.5.6.6 1s.2.8.2 1.2v14.6c0 .1 0 .3-.1.3-.1.1-.2.1-.3.1h-3.6c-.1 0-.2 0-.3-.1s-.1-.2-.1-.3v-13.2h-2.9v13.2c0 .1 0 .3-.1.3-.1.1-.2.1-.3.1H7.9c-.1 0-.3 0-.3-.1-.1-.1-.1-.2-.1-.3v-13.2H4.6v13.2c0 .3-.2.5-.5.5H.5c-.3 0-.5-.2-.5-.5v-17.1c0-.3.2-.5.5-.5h15.6c.3-.1.7 0 1 .2zm18.1-.3c.4 0 .8.1 1.2.2.4.2.7.4 1 .6.3.3.5.6.6 1s.2.8.2 1.2v14.6c0 .1 0 .3-.1.3-.1.1-.2.1-.3.1h-3.6c-.1 0-.3 0-.3-.1-.1-.1-.1-.2-.1-.3v-4.6c0-.1 0-.3-.1-.3-.1-.1-.2-.1-.3-.1h-5.1c-.1 0-.3 0-.3.1-.1.1-.1.2-.1.3v4.6c0 .3-.2.5-.5.5h-3.6c-.3 0-.5-.2-.5-.5v-14.6c0-.4.1-.8.2-1.2.2-.4.4-.7.6-1 .3-.3.6-.5 1-.6.4-.2.8-.2 1.2-.2h8.9zm-1.6 8.6V130h-6.1v4.5h6.1zm20.9-8.4c.1.1.1.2.1.3V141c0 .4-.1.8-.2 1.2-.2.4-.4.7-.6 1-.3.3-.6.5-1 .6-.4.2-.8.2-1.2.2h-7.8c-.4 0-.8-.1-1.2-.2-.4-.2-.7-.4-1-.6-.3-.3-.5-.6-.6-1-.2-.4-.2-.8-.2-1.2v-5.5c0-.3.2-.5.5-.5h3.6c.3 0 .5.2.5.5v3.7c0 .1 0 .2.1.3.1.1.2.1.3.1h3.7c.1 0 .3 0 .3-.1.1-.1.1-.2.1-.3v-12.7c0-.1 0-.3.1-.3.1-.1.2-.1.3-.1h3.6c.3-.2.5-.1.6 0zm16.3-.2c.4 0 .8.1 1.2.2.4.2.7.4 1 .6.3.3.5.6.6 1s.2.8.2 1.2v12c0 .4-.1.8-.2 1.2-.2.4-.4.7-.6 1-.3.3-.6.5-1 .6-.4.2-.8.2-1.2.2h-9.1c-.4 0-.8-.1-1.2-.2-.4-.2-.7-.4-1-.6-.3-.3-.5-.6-.6-1-.2-.4-.2-.8-.2-1.2v-12c0-.4.1-.8.2-1.2s.4-.7.6-1c.3-.3.6-.5 1-.6.4-.2.8-.2 1.2-.2h9.1zm-1.6 4.4h-6.1v9.3h6.1v-9.3zm24.4 13.3c.1.1.1.2 0 .3-.1.1-.1.1-.3.1h-4.1c-.1 0-.3 0-.4-.1l-.3-.3-2.7-4.9c0-.1-.1-.1-.2-.1h-3.1c-.1 0-.1 0-.1.1v4.8c0 .3-.2.5-.5.5h-3.6c-.3 0-.5-.2-.5-.5v-17.1c0-.3.2-.5.5-.5H90c.4 0 .8.1 1.2.2.4.2.7.4 1 .6.3.3.5.6.6 1 .2.4.2.8.2 1.2v6.8c0 .7-.2 1.2-.6 1.8-.4.5-.9.9-1.5 1.1h-.1c-.1 0-.1.1-.1.2v.1l2.9 4.7zm-5.1-13.5h-6.2v4.4h6.2v-4.4zm29.4 9.5c.1 0 .2 0 .3.1.1.1.1.2.1.3v3.4c0 .1 0 .3-.1.3-.1.1-.2.1-.3.1h-11.1c-.3 0-.5-.2-.5-.5v-17.1c0-.3.2-.5.5-.5h3.6c.3 0 .5.2.5.5v12.7c0 .1 0 .2.1.3.1.1.2.1.3.1h6.6v.3zm16.7-13.5c.1.1.1.2.1.3v3.3c0 .1 0 .2-.1.3-.1.1-.2.1-.3.1h-8.6c-.1 0-.1 0-.1.1v2.8c0 .1 0 .1.1.1h7.4c.1 0 .2 0 .3.1.1.1.1.2.1.3v2.6c0 .1 0 .3-.1.3-.1.1-.2.1-.3.1h-7.4c-.1 0-.1 0-.1.1v2.8c0 .1 0 .1.1.1h8.6c.1 0 .3 0 .3.1.1.1.1.2.1.3v3.2c0 .1 0 .3-.1.3-.1.1-.2.1-.3.1h-12.8c-.3 0-.5-.2-.5-.5v-17.1c0-.1 0-.3.1-.3.1-.1.2-.1.3-.1h12.8c.2.4.3.5.4.6zm16.4-.2c.4 0 .8.1 1.2.2.4.2.7.4 1 .6.3.3.5.6.6 1s.2.8.2 1.2v14.6c0 .1 0 .3-.1.3-.1.1-.2.1-.3.1h-3.7c-.1 0-.3 0-.3-.1-.1-.1-.1-.2-.1-.3v-4.6c0-.1 0-.3-.1-.3-.1-.1-.2-.1-.3-.1h-5.2c-.1 0-.3 0-.3.1-.1.1-.1.2-.1.3v4.6c0 .3-.2.5-.5.5h-3.6c-.3 0-.5-.2-.5-.5v-14.6c0-.4.1-.8.2-1.2.2-.4.4-.7.6-1 .3-.3.6-.5 1-.6.4-.2.8-.2 1.2-.2h9.1zm-1.6 8.6V130h-6.1v4.5h6.1zm23.7-.2c.1.1.1.2.1.3v6.4c0 .4-.1.8-.2 1.2-.2.4-.4.7-.6 1-.3.3-.6.5-1 .6-.4.2-.8.2-1.2.2h-9.1c-.4 0-.8-.1-1.2-.2-.4-.2-.7-.4-1-.6-.3-.3-.5-.6-.6-1-.2-.4-.2-.8-.2-1.2v-12c0-.4.1-.8.2-1.2s.4-.7.6-1c.3-.3.6-.5 1-.6.4-.2.8-.2 1.2-.2h10.7c.1 0 .3 0 .3.1.1.1.1.2.1.3v3.4c0 .1 0 .3-.1.3-.1.1-.2.1-.3.1h-8.6c-.1 0-.3 0-.3.1-.1.1-.1.2-.1.3v8.4c0 .1 0 .2.1.3.1.1.2.1.3.1h5.1c.1 0 .2 0 .3-.1s.1-.2.1-.3v-4.5c0-.1 0-.3.1-.3.1-.1.2-.1.3-.1h3.6c.1 0 .3.1.4.2zm19-8.2c.1.1.1.2.1.3V141c0 .4-.1.8-.2 1.2-.2.4-.4.7-.6 1-.3.3-.6.5-1 .6-.4.2-.8.2-1.2.2h-9.1c-.4 0-.8-.1-1.2-.2-.4-.2-.7-.4-1-.6-.3-.3-.5-.6-.6-1-.2-.4-.2-.8-.2-1.2v-14.6c0-.3.2-.5.5-.5h3.6c.3 0 .5.2.5.5v12.7c0 .1 0 .2.1.3.1.1.2.1.3.1h5.1c.1 0 .2 0 .3-.1s.1-.2.1-.3v-12.7c0-.1 0-.3.1-.3.1-.1.2-.1.3-.1h3.6c.3-.1.4 0 .5.1zm17.9 0c.1.1.1.2.1.3v3.3c0 .1 0 .2-.1.3-.1.1-.2.1-.3.1h-8.6c-.1 0-.1 0-.1.1v2.8c0 .1 0 .1.1.1h7.4c.1 0 .2 0 .3.1.1.1.1.2.1.3v2.6c0 .1 0 .3-.1.3-.1.1-.2.1-.3.1h-7.4c-.1 0-.1 0-.1.1v2.8c0 .1 0 .1.1.1h8.6c.1 0 .3 0 .3.1.1.1.1.2.1.3v3.2c0 .1 0 .3-.1.3-.1.1-.2.1-.3.1h-12.8c-.3 0-.5-.2-.5-.5v-17.1c0-.1 0-.3.1-.3.1-.1.2-.1.3-.1h12.8c.2.4.3.5.4.6zm27.7-.2c.1 0 .3 0 .3.1.1.1.1.2.1.3v17.1c0 .1 0 .3-.1.3-.1.1-.2.1-.3.1h-3.6c-.1 0-.3 0-.3-.1-.1-.1-.1-.2-.1-.3v-6c0-.1 0-.2-.1-.3-.1-.1-.2-.1-.3-.1h-5.1c-.1 0-.3 0-.3.1-.1.1-.1.2-.1.3v6c0 .3-.2.5-.5.5h-3.6c-.3 0-.5-.2-.5-.5v-17.1c0-.3.2-.5.5-.5h3.6c.3 0 .5.2.5.5v5.8c0 .3.2.5.5.5h5.1c.1 0 .2 0 .3-.1.1-.1.1-.2.1-.3v-5.8c0-.1 0-.3.1-.3.1-.1.2-.1.3-.1h3.5v-.1zm16.7 0c.4 0 .8.1 1.2.2.4.2.7.4 1 .6.3.3.5.6.6 1s.2.8.2 1.2v14.6c0 .1 0 .3-.1.3-.1.1-.2.1-.3.1h-3.6c-.1 0-.3 0-.3-.1-.1-.1-.1-.2-.1-.3v-4.6c0-.1 0-.3-.1-.3-.1-.1-.2-.1-.3-.1h-5.1c-.1 0-.3 0-.3.1-.1.1-.1.2-.1.3v4.6c0 .3-.2.5-.5.5H243c-.3 0-.5-.2-.5-.5v-14.6c0-.4.1-.8.2-1.2.2-.4.4-.7.6-1 .3-.3.6-.5 1-.6.4-.2.8-.2 1.2-.2h8.9zm-1.5 8.6V130h-6.1v4.5h6.1zm13.2-4.1c-.1.1-.1.2-.1.3v8.4c0 .1 0 .2.1.3.1.1.2.1.3.1h8.3c.1 0 .3 0 .3.1.1.1.1.2.1.3v3.4c0 .1 0 .3-.1.3-.1.1-.2.1-.3.1h-10.3c-.4 0-.8-.1-1.2-.2-.4-.2-.7-.4-1-.6-.3-.3-.5-.6-.6-1-.2-.4-.2-.8-.2-1.2v-12.1c0-.4.1-.8.2-1.2.2-.4.4-.7.6-1 .3-.3.6-.5 1-.6.4-.2.8-.2 1.2-.2h10.3c.1 0 .3 0 .3.1.1.1.1.2.1.3v3.4c0 .1 0 .3-.1.3-.1.1-.2.1-.3.1h-8.3c-.1.5-.2.6-.3.6zm23.5 3.1c-.1.1-.1.1 0 .2l6 9.9c.1.1.1.2 0 .3-.1.1-.1.1-.3.1H291c-.1 0-.3 0-.4-.1l-.3-.3-3.9-7c-.1-.1-.1-.1-.1 0l-2.1 2.3c-.1.1-.2.2-.2.4-.1.2-.1.3-.1.5v3.8c0 .3-.2.5-.5.5h-3.5c-.3 0-.5-.2-.5-.5v-17.1c0-.3.2-.5.5-.5h3.6c.3 0 .5.2.5.5v7.7l6.7-7.8c.1-.1.2-.2.4-.3.2-.1.3-.1.4-.1h4.3c.1 0 .2 0 .2.1s0 .2-.1.3l-6.3 7.1zm13.9 10c0 .3-.2.5-.5.5h-3.6c-.3 0-.5-.2-.5-.5v-17.1c0-.3.2-.5.5-.5h3.6c.3 0 .5.2.5.5v17.1zm17.4-17.3c.4.2.7.4 1 .6.3.3.5.6.6 1 .2.4.2.8.2 1.2v14.6c0 .1 0 .3-.1.3-.1.1-.2.1-.3.1h-3.6c-.1 0-.2 0-.3-.1s-.1-.2-.1-.3v-12.7c0-.1 0-.2-.1-.3s-.2-.1-.3-.1h-5.1c-.1 0-.3 0-.3.1s-.1.2-.1.3v12.7c0 .3-.2.5-.5.5h-3.6c-.3 0-.5-.2-.5-.5v-17.1c0-.3.2-.5.5-.5H320c.2-.1.6 0 .9.2zm20.9 8.1c.1.1.1.2.1.3v6.4c0 .4-.1.8-.2 1.2-.2.4-.4.7-.6 1-.3.3-.6.5-1 .6-.4.2-.8.2-1.2.2h-9.1c-.4 0-.8-.1-1.2-.2-.4-.2-.7-.4-1-.6-.3-.3-.5-.6-.6-1-.2-.4-.2-.8-.2-1.2v-12c0-.4.1-.8.2-1.2s.4-.7.6-1c.3-.3.6-.5 1-.6.4-.2.8-.2 1.2-.2h10.7c.1 0 .3 0 .3.1.1.1.1.2.1.3v3.4c0 .1 0 .3-.1.3-.1.1-.2.1-.3.1h-8.6c-.1 0-.3 0-.3.1-.1.1-.1.2-.1.3v8.4c0 .1 0 .2.1.3.1.1.2.1.3.1h5.1c.1 0 .2 0 .3-.1s.1-.2.1-.3v-4.5c0-.1 0-.3.1-.3.1-.1.2-.1.3-.1h3.6c.2 0 .3.1.4.2z"/><path class="st1" d="M108.8 1.5c2.3 1 4.3 2.4 6 4.1 1.7 1.7 3 3.7 4.1 6 1 2.3 1.5 4.8 1.5 7.4v94.8c0 .9-.3 1.6-.9 2.2s-1.3.9-2.2.9H94.6c-.9 0-1.6-.3-2.1-.9s-.8-1.3-.8-2.2V27.6H73.4v86.2c0 .9-.3 1.6-.8 2.2s-1.3.9-2.1.9H49.9c-.9 0-1.6-.3-2.2-.9s-.9-1.3-.9-2.2V27.6H28.5v86.2c0 2.1-1 3.1-3.1 3.1H2.9c-2.1 0-3.1-1-3.1-3.1V3.1C-.2 1 .8 0 2.9 0h98.4c2.7 0 5.1.5 7.5 1.5z"/><path class="st2" d="M108.8 1.5c2.3 1 4.3 2.4 6 4.1 1.7 1.7 3 3.7 4.1 6 1 2.3 1.5 4.8 1.5 7.4v8.4l-28.7.2H28.6l-28.7-.2V3C-.1.9.9-.1 3-.1h98.4c2.6.1 5 .6 7.4 1.6z"/><path class="st3" d="M219.3 88.5c.9 0 1.7.3 2.2.9.6.6.9 1.4.9 2.3v22.1c0 .9-.3 1.6-.9 2.3-.6.6-1.3.9-2.2.9h-77.7c-2.2 0-3.3-1.1-3.3-3.2V3.2c0-2.1 1.1-3.2 3.3-3.2h23.8c2.2 0 3.3 1.1 3.3 3.2v82.4c0 .9.3 1.6 1 2.2.6.6 1.4.8 2.3.8h47.3v-.1z"/><path class="st4" d="M168.5 116.9h-26.9c-2.2 0-3.3-1.1-3.3-3.2V3.2c0-2.1 1.1-3.2 3.3-3.2h23.8c2.2 0 3.3 1.1 3.3 3.2v82.4c0 .8-.2 31.3-.2 31.3z"/><path class="st5" d="M338.7 0c.9 0 1.7.3 2.3.9.6.6 1 1.4 1 2.3v110.9c0 .9-.3 1.6-1 2.3-.6.6-1.4.9-2.3.9h-24.2c-.9 0-1.7-.3-2.3-.9s-1-1.4-1-2.3V75.4c0-.9-.3-1.6-.9-2.2-.6-.6-1.3-.8-2.3-.8h-33.9c-.9 0-1.7.3-2.3.8-.6.6-1 1.3-1 2.2v38.7c0 2.1-1.1 3.2-3.3 3.2h-24c-2.2 0-3.3-1.1-3.3-3.2V3.2c0-2.1 1.1-3.2 3.3-3.2h24c2.2 0 3.3 1.1 3.3 3.2v37.5c0 2.1 1.1 3.2 3.3 3.2H308c.9 0 1.7-.3 2.3-.9.6-.6.9-1.4.9-2.3V3.2c0-.9.3-1.6 1-2.3.6-.6 1.4-.9 2.3-.9h24.2z"/><path class="st6" d="M270.9 75.4v38.7c0 2.1-1.1 3.2-3.3 3.2h-24c-2.2 0-3.3-1.1-3.3-3.2V3.2c0-2.1 1.1-3.2 3.3-3.2h24c2.2 0 3.3 1.1 3.3 3.2v72.2zM338.7 0c.9 0 1.7.3 2.3.9.6.6 1 1.4 1 2.3v110.9c0 .9-.3 1.6-1 2.3-.6.6-1.4.9-2.3.9h-24.2c-.9 0-1.7-.3-2.3-.9s-1-1.4-1-2.3V3.2c0-.9.3-1.6 1-2.3.6-.6 1.4-.9 2.3-.9h24.2z"/></g></svg>