<?xml version="1.0" encoding="utf-8"?>
<!-- Generator: Adobe Illustrator 22.1.0, SVG Export Plug-In . SVG Version: 6.00 Build 0)  -->
<svg version="1.1" id="Layer_1" xmlns="http://www.w3.org/2000/svg" xmlns:xlink="http://www.w3.org/1999/xlink" x="0px" y="0px"
	 viewBox="0 0 725 360" style="enable-background:new 0 0 725 360;" xml:space="preserve">
<style type="text/css">
	.st0{fill:#5468FF;}
	.st1{fill:#FFFFFF;}
</style>
<g>
	<path class="st0" d="M135.8,121h88.4c8.7,0,15.8,7.1,15.8,15.8v88.4c0,8.7-7.1,15.8-15.8,15.8h-88.4c-8.7,0-15.8-7.1-15.8-15.8
		v-88.4C120,128.1,127.1,121,135.8,121"/>
	<path class="st1" d="M192.5,147.8v-4.1c0-2.9-2.3-5.2-5.2-5.2h-12.1c-2.9,0-5.2,2.3-5.2,5.2v4.2c0,0.5,0.4,0.8,0.9,0.7
		c3.4-1,7-1.5,10.6-1.5c3.5,0,6.9,0.5,10.2,1.4C192.1,148.6,192.5,148.3,192.5,147.8 M159.2,153.2l-2.1-2.1c-2-2-5.3-2-7.4,0
		c0,0,0,0,0,0l-2.5,2.5c-2,2-2,5.3,0,7.3c0,0,0,0,0,0l2,2c0.3,0.3,0.8,0.2,1.1-0.1c1.2-1.7,2.5-3.2,4-4.7c1.5-1.5,3-2.8,4.7-4
		C159.5,154,159.5,153.5,159.2,153.2 M181.4,166.2V184c0,0.5,0.6,0.9,1,0.6l15.8-8.2c0.4-0.2,0.5-0.6,0.3-1
		c-3.3-5.8-9.4-9.7-16.4-9.9C181.7,165.5,181.4,165.8,181.4,166.2 M181.4,209.1c-13.2,0-23.9-10.7-23.9-23.9s10.7-23.9,23.9-23.9
		c13.2,0,23.9,10.7,23.9,23.9S194.6,209.1,181.4,209.1 M181.4,151.3c-18.7,0-33.9,15.2-33.9,33.9c0,18.7,15.2,33.9,33.9,33.9
		s33.9-15.2,33.9-33.9S200.2,151.3,181.4,151.3"/>
	<path class="st0" d="M359.2,216.2c-23.4,0.1-23.4-18.9-23.4-21.9l0-71l14.3-2.3v70.6c0,1.7,0,12.6,9.1,12.6L359.2,216.2
		L359.2,216.2z M301.4,204.6c4.4,0,7.6-0.3,9.9-0.7v-14.5c-1.1-0.3-2.3-0.5-3.4-0.7c-1.6-0.2-3.3-0.4-5-0.4c-1.6,0-3.2,0.1-4.8,0.4
		c-1.6,0.2-3.1,0.7-4.3,1.3s-2.3,1.5-3.1,2.6c-0.8,1.1-1.2,1.8-1.2,3.5c0,3.3,1.2,5.3,3.3,6.6C294.9,203.9,297.8,204.6,301.4,204.6
		L301.4,204.6z M300.2,152.9c4.7,0,8.7,0.6,11.9,1.8c3.2,1.2,5.8,2.8,7.7,4.9c1.9,2.1,3.2,4.9,4,7.9c0.8,3,1.2,6.3,1.2,9.9v36.6
		c-2.2,0.5-5.5,1-10,1.7c-4.4,0.7-9.4,1-15,1c-3.7,0-7.1-0.4-10.1-1.1c-3.1-0.7-5.6-1.8-7.8-3.4c-2.1-1.6-3.8-3.6-5.1-6
		c-1.2-2.5-1.8-6-1.8-9.6c0-3.5,0.7-5.7,2-8.1c1.4-2.4,3.2-4.4,5.6-5.9c2.4-1.5,5.1-2.6,8.2-3.3s6.3-1,9.7-1c1.6,0,3.2,0.1,5,0.3
		c1.7,0.2,3.6,0.5,5.5,1v-2.3c0-1.6-0.2-3.2-0.6-4.7c-0.4-1.4-1.1-2.8-2-3.9c-1-1.1-2.3-2-3.9-2.6c-1.6-0.6-3.6-1.1-6.1-1.1
		c-3.3,0-6.3,0.4-9,0.9c-2.7,0.5-5,1-6.7,1.6l-1.7-11.7c1.8-0.6,4.4-1.2,7.9-1.9C292.6,153.2,296.3,152.9,300.2,152.9L300.2,152.9z
		 M581.7,204.2c4.4,0,7.6-0.3,9.9-0.7V189c-0.8-0.2-1.9-0.5-3.4-0.7c-1.6-0.2-3.3-0.4-5-0.4c-1.6,0-3.2,0.1-4.8,0.4
		c-1.6,0.2-3.1,0.7-4.3,1.3c-1.3,0.6-2.3,1.5-3.1,2.6c-0.8,1.1-1.2,1.8-1.2,3.5c0,3.3,1.2,5.3,3.3,6.6
		C575.2,203.5,578.1,204.2,581.7,204.2L581.7,204.2z M580.5,152.5c4.7,0,8.7,0.6,11.9,1.7c3.2,1.2,5.8,2.8,7.7,4.9s3.2,4.9,4,7.9
		c0.8,3,1.2,6.3,1.2,9.9v36.6c-2.2,0.5-5.5,1-10,1.7c-4.4,0.7-9.4,1-15,1c-3.7,0-7.1-0.4-10.1-1.1c-3.1-0.7-5.7-1.8-7.8-3.4
		c-2.2-1.6-3.8-3.6-5.1-6c-1.2-2.5-1.8-6-1.8-9.6c0-3.5,0.7-5.7,2-8.1c1.4-2.4,3.2-4.4,5.6-5.9c2.4-1.5,5.1-2.6,8.2-3.3s6.3-1,9.7-1
		c1.6,0,3.2,0.1,5,0.3s3.6,0.5,5.5,1v-2.3c0-1.6-0.2-3.2-0.6-4.7c-0.4-1.4-1.1-2.8-2-3.9c-1-1.1-2.3-2-3.9-2.6
		c-1.6-0.6-3.7-1.1-6.1-1.1c-3.3,0-6.3,0.4-9,0.9c-2.7,0.5-5,1-6.7,1.6l-1.7-11.7c1.8-0.6,4.4-1.2,7.9-1.9
		C572.9,152.8,576.6,152.5,580.5,152.5L580.5,152.5z M537.7,145.8c4.8,0,8.7-3.9,8.7-8.6c0-4.8-3.9-8.6-8.7-8.6
		c-4.8,0-8.7,3.9-8.7,8.6C529,141.9,532.9,145.8,537.7,145.8z M544.9,216.2h-14.3v-61.4l14.3-2.3L544.9,216.2L544.9,216.2z
		 M519.8,216.2c-23.4,0.1-23.4-18.9-23.4-21.9l0-71l14.3-2.3v70.6c0,1.7,0,12.6,9.1,12.6V216.2z M473.4,184.7c0-6.2-1.4-11.3-4-14.9
		c-2.6-3.6-6.3-5.4-11-5.4c-4.7,0-8.4,1.8-11,5.4c-2.6,3.6-3.9,8.7-3.9,14.9c0,6.2,1.3,10.4,3.9,14c2.6,3.6,6.3,5.4,11,5.4
		c4.7,0,8.4-1.8,11-5.4C472.1,195.1,473.4,191,473.4,184.7z M488,184.7c0,4.8-0.7,8.4-2.1,12.4c-1.4,4-3.4,7.4-6,10.2
		c-2.6,2.8-5.7,5-9.3,6.5c-3.6,1.5-9.3,2.4-12.1,2.4c-2.8,0-8.4-0.8-12-2.4c-3.6-1.6-6.7-3.7-9.3-6.5c-2.6-2.8-4.6-6.2-6.1-10.2
		c-1.5-4-2.2-7.6-2.2-12.4s0.7-9.4,2.1-13.4c1.5-3.9,3.5-7.3,6.1-10.1c2.6-2.8,5.8-5,9.3-6.5c3.6-1.5,7.6-2.3,11.9-2.3
		c4.3,0,8.3,0.8,11.9,2.3c3.6,1.5,6.8,3.7,9.3,6.5c2.6,2.8,4.6,6.1,6,10.1C487.2,175.3,488,179.9,488,184.7L488,184.7z M380.7,184.7
		c0,6,1.3,12.6,3.9,15.4c2.6,2.8,6,4.1,10.2,4.1c2.3,0,4.4-0.3,6.4-0.9c2-0.6,3.6-1.4,4.9-2.2v-35.3c-1-0.2-5.3-1.1-9.4-1.2
		c-5.2-0.1-9.1,2-11.9,5.3C382.1,173.2,380.7,179.2,380.7,184.7L380.7,184.7z M420.3,212.8c0,9.7-2.5,16.8-7.5,21.3
		c-5,4.5-12.6,6.8-22.9,6.8c-3.8,0-11.6-0.7-17.8-2.1l2.3-11.3c5.2,1.1,12.1,1.4,15.7,1.4c5.7,0,9.8-1.2,12.2-3.5
		c2.4-2.3,3.6-5.8,3.6-10.4v-2.3c-1.4,0.7-3.3,1.4-5.6,2.1c-2.3,0.7-5,1.1-8,1.1c-3.9,0-7.5-0.6-10.8-1.9c-3.2-1.2-6.1-3.1-8.4-5.5
		c-2.3-2.4-4.1-5.4-5.4-9s-1.9-10-1.9-14.8c0-4.4,0.7-10,2-13.7c1.4-3.7,3.4-6.9,6-9.6c2.6-2.7,5.8-4.7,9.6-6.2
		c3.8-1.5,8.2-2.4,12.9-2.4c4.6,0,8.9,0.6,13.1,1.3c4.2,0.7,7.7,1.4,10.6,2.2L420.3,212.8L420.3,212.8z"/>
</g>
</svg>
