<svg id="Layer_1" data-name="Layer 1" xmlns="http://www.w3.org/2000/svg" viewBox="0 0 271.29 70.06"><defs><style>.cls-1{fill:#231f20;}</style></defs><title>sponsor-authorize-net-logo-horizontal-monochrome-black</title><path class="cls-1" d="M133.86,80.84l-1.8,5.46h-2.32l5.9-17.36h2.71l5.92,17.36h-2.4L140,80.84h-6.16Zm5.69-1.75-1.7-5c-0.39-1.13-.64-2.16-0.9-3.17H136.9c-0.26,1-.54,2.09-0.88,3.14l-1.7,5h5.23Z" transform="translate(-17.74 -16.52)"/><path class="cls-1" d="M155.16,86.3L149.5,68.94h2.42l2.7,8.55c0.75,2.34,1.39,4.46,1.85,6.49h0.05c0.49-2,1.21-4.2,2-6.46l2.94-8.58h2.4L157.64,86.3h-2.47Z" transform="translate(-17.74 -16.52)"/><path class="cls-1" d="M167.76,70.33a1.4,1.4,0,0,1-2.81,0,1.38,1.38,0,0,1,1.42-1.42A1.35,1.35,0,0,1,167.76,70.33Zm-2.52,16V73.83h2.27V86.3h-2.27Z" transform="translate(-17.74 -16.52)"/><path class="cls-1" d="M171,84a5.94,5.94,0,0,0,3,.9c1.65,0,2.42-.82,2.42-1.85s-0.64-1.67-2.32-2.29c-2.24-.8-3.3-2-3.3-3.53,0-2,1.62-3.66,4.3-3.66a6.22,6.22,0,0,1,3.06.77L177.55,76a4.85,4.85,0,0,0-2.55-.72,1.82,1.82,0,0,0-2.09,1.7c0,1,.75,1.49,2.37,2.11,2.16,0.82,3.27,1.91,3.27,3.76,0,2.19-1.7,3.73-4.66,3.73a7.11,7.11,0,0,1-3.5-.85Z" transform="translate(-17.74 -16.52)"/><path class="cls-1" d="M188.37,86.3l-0.18-1.57h-0.08a4.64,4.64,0,0,1-3.81,1.85A3.55,3.55,0,0,1,180.49,83c0-3,2.68-4.66,7.5-4.64V78.11a2.57,2.57,0,0,0-2.83-2.88,6.21,6.21,0,0,0-3.25.93l-0.52-1.49a7.74,7.74,0,0,1,4.1-1.11c3.81,0,4.74,2.6,4.74,5.1v4.66a17.58,17.58,0,0,0,.21,3h-2.06ZM188,79.93c-2.47-.05-5.28.39-5.28,2.81a2,2,0,0,0,2.14,2.16,3.1,3.1,0,0,0,3-2.09A2.37,2.37,0,0,0,188,82.1V79.93Z" transform="translate(-17.74 -16.52)"/><path class="cls-1" d="M199.12,83.57a7.94,7.94,0,0,0,4,1.13c2.29,0,3.63-1.21,3.63-3s-0.93-2.55-3.27-3.45c-2.83-1-4.58-2.47-4.58-4.92,0-2.7,2.24-4.71,5.62-4.71a7.89,7.89,0,0,1,3.84.85l-0.62,1.83a6.92,6.92,0,0,0-3.3-.82c-2.37,0-3.27,1.42-3.27,2.6,0,1.62,1.06,2.42,3.45,3.35,2.94,1.13,4.43,2.55,4.43,5.1s-2,5-6.08,5a9,9,0,0,1-4.43-1.11Z" transform="translate(-17.74 -16.52)"/><path class="cls-1" d="M223.49,80c0,4.61-3.19,6.62-6.21,6.62-3.37,0-6-2.47-6-6.41,0-4.17,2.73-6.62,6.18-6.62S223.49,76.15,223.49,80Zm-9.89.13c0,2.73,1.57,4.79,3.79,4.79s3.79-2,3.79-4.84c0-2.11-1.06-4.79-3.73-4.79S213.6,77.72,213.6,80.09Z" transform="translate(-17.74 -16.52)"/><path class="cls-1" d="M226.35,68h2.27V86.3h-2.27V68Z" transform="translate(-17.74 -16.52)"/><path class="cls-1" d="M242.86,82.9c0,1.29,0,2.42.1,3.4h-2l-0.13-2h-0.05a4.69,4.69,0,0,1-4.12,2.32c-2,0-4.3-1.08-4.3-5.46V73.83h2.27v6.9c0,2.37.72,4,2.78,4a3.28,3.28,0,0,0,3-2.06,3.31,3.31,0,0,0,.21-1.16V73.83h2.27V82.9Z" transform="translate(-17.74 -16.52)"/><path class="cls-1" d="M249.36,70.25v3.58h3.25v1.73h-3.25v6.72c0,1.55.44,2.42,1.7,2.42a5,5,0,0,0,1.31-.15l0.1,1.7a5.54,5.54,0,0,1-2,.31,3.14,3.14,0,0,1-2.45-1,4.62,4.62,0,0,1-.88-3.25v-6.8h-1.93V73.83h1.93v-3Z" transform="translate(-17.74 -16.52)"/><path class="cls-1" d="M257.68,70.33a1.4,1.4,0,0,1-2.81,0,1.38,1.38,0,0,1,1.42-1.42A1.35,1.35,0,0,1,257.68,70.33Zm-2.52,16V73.83h2.27V86.3h-2.27Z" transform="translate(-17.74 -16.52)"/><path class="cls-1" d="M272.46,80c0,4.61-3.19,6.62-6.21,6.62-3.37,0-6-2.47-6-6.41,0-4.17,2.73-6.62,6.18-6.62S272.46,76.15,272.46,80Zm-9.89.13c0,2.73,1.57,4.79,3.79,4.79s3.79-2,3.79-4.84c0-2.11-1.06-4.79-3.73-4.79S262.57,77.72,262.57,80.09Z" transform="translate(-17.74 -16.52)"/><path class="cls-1" d="M275.33,77.2c0-1.29,0-2.34-.1-3.37h2l0.13,2.06h0.05a4.58,4.58,0,0,1,4.12-2.34c1.73,0,4.4,1,4.4,5.31V86.3h-2.27V79.11c0-2-.75-3.68-2.88-3.68a3.33,3.33,0,0,0-3.19,3.37v7.5h-2.27V77.2Z" transform="translate(-17.74 -16.52)"/><path class="cls-1" d="M32,28.07h0.14l3.54,10.09H28.47L32,28.07m4.3,23.17h13.4V49.71c-2.59-.32-3.38-0.52-5.07-5.15-1.86-5-4-10.79-6.07-16.57l-3.22-9.1-2.4.66L23,44.72c-1.71,4.41-2.35,4.64-5.28,5v1.53h11V49.71l-1.21-.14c-2.26-.25-2.35-0.77-1.63-3.24,0.64-2.12,1.28-4.27,1.88-5.7h8.67c0.74,1.79,1.67,4.36,2.31,6,0.83,2.11.58,2.64-1.22,2.91l-1.28.18v1.53Z" transform="translate(-17.74 -16.52)"/><path class="cls-1" d="M63.69,34.22c0-1.79-.24-2.1-1.51-2.32l-1.52-.24V30.24c2.45-.12,6.71-0.6,9-0.91V46c0,2,.2,2.57,1.75,2.57H73V50a87.66,87.66,0,0,0-8.87,1.82l-0.39-.34V48.39c-0.92.68-1.75,1.31-2.83,2a7.87,7.87,0,0,1-4.29,1.43c-4.09,0-6.34-2.72-6.34-6.47V34.22c0-1.79-.24-2.1-1.5-2.32l-1.33-.24V30.24c2.25-.12,6.26-0.6,8.82-0.91V44.1c0,2.88,1.46,4,3.3,4a6.45,6.45,0,0,0,4.16-1.87v-12" transform="translate(-17.74 -16.52)"/><path class="cls-1" d="M81.74,44c0,3.75,1.85,4.46,2.74,4.46A5.19,5.19,0,0,0,87,47.69l0.67,1.46L83.5,51.28a4.94,4.94,0,0,1-1.85.51c-3.78,0-5.88-1.64-5.88-6V32.2H72.63l-0.34-.62,1.57-1.87h1.91v-3l5.13-3.86,0.85,0.41v6.44h4.84a1.68,1.68,0,0,1-.34,2.5h-4.5V44" transform="translate(-17.74 -16.52)"/><path class="cls-1" d="M97.58,32.27a10.1,10.1,0,0,1,6.68-3.13c4.45,0,6.91,2.79,6.91,7.4v9.92c0,2.74.24,2.93,3,3.26v1.53h-11.5V49.71c2.37-.33,2.56-0.51,2.56-3.26V37.07c0-3-1.69-4.31-3.73-4.31a5.42,5.42,0,0,0-3.87,1.61V46.45c0,2.74.23,2.93,2.27,3.26v1.53H88.07V49.71c3.27-.33,3.52-0.51,3.52-3.26V22.81c0-2.9-.09-3-3.19-3.15V18.25c2.17-.34,5.94-1,9.18-1.72V32.27" transform="translate(-17.74 -16.52)"/><path class="cls-1" d="M121.68,39c0-5.3,2.08-7.89,4.07-7.89,3.13,0,5,3.77,5,10.31,0,7.08-2.2,8.3-4,8.3-3.15,0-5.11-4.56-5.11-10.71m4.81-9.91A11.51,11.51,0,0,0,114.93,41c0,5.23,3.77,10.78,11.31,10.78,5.64,0,11.28-3.83,11.28-11.81a10.67,10.67,0,0,0-11-10.84" transform="translate(-17.74 -16.52)"/><path class="cls-1" d="M148,46.45c0,2.73.24,2.93,4,3.26v1.53H138.68V49.71c3.07-.33,3.33-0.52,3.33-3.26V35.6c0-3-.09-3-3.24-3.38V30.9c2.86-.4,6-1.06,9.23-1.76V34h0.1a19.84,19.84,0,0,1,2.29-3.13,4.62,4.62,0,0,1,3.24-1.73,3.13,3.13,0,0,1,3.28,3,3.75,3.75,0,0,1-2.32,3.47,1.43,1.43,0,0,1-1.51-.2,4.06,4.06,0,0,0-2.44-1c-0.83,0-1.81.37-2.63,2.41v9.67" transform="translate(-17.74 -16.52)"/><path class="cls-1" d="M160.76,35.6c0-3-.09-3-3.23-3.38V30.9c2.88-.4,6.12-1.06,9.22-1.76V46.39c0,2.8.24,3,3.36,3.32v1.53H157.39V49.71c3.13-.33,3.37-0.52,3.37-3.32V35.6m6.14-14.19a3.51,3.51,0,0,1-3.55,3.54,3.55,3.55,0,1,1,0-7.1,3.52,3.52,0,0,1,3.55,3.56" transform="translate(-17.74 -16.52)"/><path class="cls-1" d="M189.58,29.7L190,30.4,178.75,49.16h3.88c3.37,0,4.68-.61,6.32-3.39l0.72-1.22,1.76,0.65c-0.88,2.43-1.51,4.25-2.25,6H171.51L171,50.52l11.61-18.75h-3.44c-3.24,0-4.1.74-5.23,3.16l-0.7,1.5-1.76-.66c0.58-1.85,1.35-5,1.81-7.1h1.08c0.25,0.72.78,1,2.64,1h12.54" transform="translate(-17.74 -16.52)"/><path class="cls-1" d="M197.09,37.24c0.29-3.32,2.1-5.86,3.91-5.86s3.42,2.57,3.42,4.55c0,1-.19,1.16-0.92,1.16l-6.42.15m12.15,8.33a9,9,0,0,1-5.3,1.89c-3.73,0-7.06-2.53-7.06-8,4.86-.19,11.38-0.64,12.06-0.79,1-.19,1.12-0.3,1.12-2.13a7.68,7.68,0,0,0-7.63-7.38c-6,0-11.25,5.25-11.25,12.31a10,10,0,0,0,10.41,10.33c1.71,0,5.54-1,8.33-5.25Z" transform="translate(-17.74 -16.52)"/><path class="cls-1" d="M211.63,48a3.73,3.73,0,1,1,3.7,3.83,3.64,3.64,0,0,1-3.7-3.83" transform="translate(-17.74 -16.52)"/><path class="cls-1" d="M250.68,51.59h-3L228.25,27.71h-0.11V37.85a72.19,72.19,0,0,0,.48,9.39c0.26,1.7,1.48,2.34,4.73,2.48v1.53H221.21V49.71c2.45-.09,3.62-0.78,3.85-2.48a64.9,64.9,0,0,0,.51-9.39V28.13c0-3.12,0-4.33-.89-5.49s-2.16-1.5-4.16-1.66V19.45H229l18.95,22h0.1V32.85a69,69,0,0,0-.49-9.37c-0.24-1.72-1.48-2.33-4.72-2.49V19.45H255V21c-2.46.09-3.62,0.76-3.87,2.49a70.3,70.3,0,0,0-.48,9.37V51.59" transform="translate(-17.74 -16.52)"/><path class="cls-1" d="M258.25,37.24c0.28-3.32,2.1-5.86,3.9-5.86s3.42,2.57,3.42,4.55c0,1-.18,1.16-0.93,1.16l-6.39.15m12.15,8.33a9,9,0,0,1-5.31,1.89c-3.71,0-7-2.53-7-8,4.84-.19,11.36-0.64,12-0.79,1-.19,1.12-0.3,1.12-2.13a7.67,7.67,0,0,0-7.63-7.38c-6,0-11.26,5.25-11.26,12.31a10,10,0,0,0,10.42,10.33c1.72,0,5.55-1,8.33-5.25Z" transform="translate(-17.74 -16.52)"/><path class="cls-1" d="M280.75,44c0,3.75,1.84,4.46,2.74,4.46a5.14,5.14,0,0,0,2.53-.79l0.69,1.46-4.21,2.12a4.87,4.87,0,0,1-1.86.51c-3.76,0-5.9-1.64-5.9-6V32.2h-3.11l-0.34-.62,1.57-1.87h1.88v-3l5.16-3.86,0.84,0.41v6.44h4.84a1.68,1.68,0,0,1-.34,2.5h-4.5V44" transform="translate(-17.74 -16.52)"/><path class="cls-1" d="M286.57,27.92a2.46,2.46,0,0,1-2.46-2.46,2.47,2.47,0,0,1,.33-1.23,2.33,2.33,0,0,1,.91-0.9,2.44,2.44,0,0,1,2.45,0,2.35,2.35,0,0,1,.9.9,2.46,2.46,0,0,1-2.13,3.69m0-.37a2,2,0,0,0,1-.27,2,2,0,0,0,.77-0.76,2,2,0,0,0,.28-1.06,2.16,2.16,0,0,0-.27-1,2.06,2.06,0,0,0-.77-0.76,2.09,2.09,0,0,0-1-.28,2,2,0,0,0-1,.28,2,2,0,0,0-.77.76,2.11,2.11,0,0,0-.28,1,2,2,0,0,0,1.06,1.81,2,2,0,0,0,1,.27m-0.46-.62h-0.48V24h1a1.09,1.09,0,0,1,.53.1,0.74,0.74,0,0,1,.28.29,0.93,0.93,0,0,1,.1.42,1,1,0,0,1-.14.5,1,1,0,0,1-.44.36,1.27,1.27,0,0,1,.33.43l0.46,0.87h-0.54l-0.39-.73L286.7,26a0.55,0.55,0,0,0-.24-0.3H286.1v1.22Zm0-1.58h0.32a0.52,0.52,0,0,0,.45-0.17,0.65,0.65,0,0,0,.13-0.38,0.53,0.53,0,0,0,0-.23,0.51,0.51,0,0,0-.15-0.17,0.64,0.64,0,0,0-.35-0.07H286.1v1Z" transform="translate(-17.74 -16.52)"/></svg>