<svg id="Layer_1" data-name="Layer 1" xmlns="http://www.w3.org/2000/svg" viewBox="0 0 106.25 25.55"><defs><style>.cls-1{fill:#00bceb;}.cls-2{fill:#005073;}</style></defs><title>sponsor-cisco-webex-logo-color</title><path class="cls-1" d="M44.82,24.95H42.89v5.35H41.38V24.95h-1.9V23.81h5.34v1.13Z" transform="translate(-0.48 -4.88)"/><path class="cls-1" d="M49.24,28.94a2.06,2.06,0,0,1-.25.6,1.62,1.62,0,0,1-.45.47,2.23,2.23,0,0,1-.68.31,3.41,3.41,0,0,1-.92.11,2.89,2.89,0,0,1-1-.17,2.14,2.14,0,0,1-.78-0.49,2.22,2.22,0,0,1-.5-0.78,2.84,2.84,0,0,1-.18-1,3,3,0,0,1,.17-1.06,2,2,0,0,1,1.25-1.26,2.89,2.89,0,0,1,1-.16,2.82,2.82,0,0,1,1,.17,1.91,1.91,0,0,1,.76.52,2.4,2.4,0,0,1,.48.88,4.16,4.16,0,0,1,.17,1.24H45.88a1.37,1.37,0,0,0,.36.89,1.08,1.08,0,0,0,.75.27,1,1,0,0,0,.54-0.14,0.64,0.64,0,0,0,.27-0.37h1.43Zm-2.38-2.57a0.88,0.88,0,0,0-.66.26,1.42,1.42,0,0,0-.31.86h2a1.26,1.26,0,0,0-.29-0.85A1,1,0,0,0,46.85,26.36Z" transform="translate(-0.48 -4.88)"/><path class="cls-1" d="M50,27a1.79,1.79,0,0,1,.74-1.09,2.64,2.64,0,0,1,1.52-.39,2.39,2.39,0,0,1,1.54.45,1.53,1.53,0,0,1,.56,1.26v3.1h-1.1l-0.17-.49a1.92,1.92,0,0,1-.61.44,2.17,2.17,0,0,1-.94.18,2.12,2.12,0,0,1-.66-0.1A1.47,1.47,0,0,1,50.33,30,1.31,1.31,0,0,1,50,29.58a1.55,1.55,0,0,1-.12-0.63,1.31,1.31,0,0,1,.09-0.5A1.07,1.07,0,0,1,50.29,28a2.15,2.15,0,0,1,.59-0.32,4.61,4.61,0,0,1,.89-0.23l1.16-.19V27.08a0.66,0.66,0,0,0-.19-0.52,0.8,0.8,0,0,0-.55-0.18,0.81,0.81,0,0,0-.53.16,0.72,0.72,0,0,0-.24.42H50Zm2,2.5a1,1,0,0,0,.74-0.27,0.87,0.87,0,0,0,.27-0.63V28.05l-0.8.16a1.46,1.46,0,0,0-.67.26,0.53,0.53,0,0,0-.18.4A0.54,0.54,0,0,0,51.92,29.47Z" transform="translate(-0.48 -4.88)"/><path class="cls-1" d="M55.27,30.29V25.61h1l0.23,0.51a1.9,1.9,0,0,1,.59-0.47,1.81,1.81,0,0,1,.84-0.18,2.11,2.11,0,0,1,.82.15,1.35,1.35,0,0,1,.6.5A2,2,0,0,1,60,25.66a2.11,2.11,0,0,1,.9-0.18,2.26,2.26,0,0,1,.69.1,1.42,1.42,0,0,1,.54.31,1.39,1.39,0,0,1,.36.55,2.34,2.34,0,0,1,.13.81v3h-1.4V27.22a0.73,0.73,0,0,0-.2-0.56,0.78,0.78,0,0,0-.54-0.18,0.83,0.83,0,0,0-.36.08,0.7,0.7,0,0,0-.26.21,0.92,0.92,0,0,0-.15.31,1.36,1.36,0,0,0,0,.37v2.86h-1.4V27.22a0.73,0.73,0,0,0-.2-0.56,0.78,0.78,0,0,0-.54-0.18,0.72,0.72,0,0,0-.59.27,1,1,0,0,0-.22.63v2.92h-1.4Z" transform="translate(-0.48 -4.88)"/><path class="cls-1" d="M65.52,29.48a1.15,1.15,0,0,0,.6-0.12A0.37,0.37,0,0,0,66.3,29a0.35,0.35,0,0,0-.05-0.2,0.41,0.41,0,0,0-.18-0.14,2.26,2.26,0,0,0-.34-0.11l-0.54-.14a6.17,6.17,0,0,1-.65-0.19A2.07,2.07,0,0,1,64,28a1.3,1.3,0,0,1-.37-0.42A1.37,1.37,0,0,1,64,25.88a2.51,2.51,0,0,1,1.55-.4,2.57,2.57,0,0,1,1.47.38,1.57,1.57,0,0,1,.68,1.05H66.29a0.54,0.54,0,0,0-.24-0.35,1,1,0,0,0-.54-0.13,0.86,0.86,0,0,0-.49.1,0.33,0.33,0,0,0-.14.28,0.32,0.32,0,0,0,0,.17,0.42,0.42,0,0,0,.15.13,1.44,1.44,0,0,0,.3.12l0.49,0.13,0.65,0.18a2.49,2.49,0,0,1,.6.26,1.41,1.41,0,0,1,.44.41,1.1,1.1,0,0,1,.17.63,1.49,1.49,0,0,1-.13.64,1.38,1.38,0,0,1-.41.5,2,2,0,0,1-.68.33,3.62,3.62,0,0,1-1,.12A2.65,2.65,0,0,1,64,30a1.6,1.6,0,0,1-.7-1.05H64.7a0.55,0.55,0,0,0,.27.36A1,1,0,0,0,65.52,29.48Z" transform="translate(-0.48 -4.88)"/><path class="cls-1" d="M6.43,16Q9,16,9.19,13.16h3a5.37,5.37,0,0,1-2,3.84,6.29,6.29,0,0,1-3.86,1.09A5.46,5.46,0,0,1,2,16.21,7.16,7.16,0,0,1,.48,11.45,6.65,6.65,0,0,1,2.32,6.35,5.9,5.9,0,0,1,6.52,4.88a5.86,5.86,0,0,1,3.93,1.29,5,5,0,0,1,1.67,3.12h-3A2.54,2.54,0,0,0,6.52,6.94,2.47,2.47,0,0,0,4.28,8.16a6.2,6.2,0,0,0-.72,3.29,5.79,5.79,0,0,0,1,3.68A2.39,2.39,0,0,0,6.43,16Z" transform="translate(-0.48 -4.88)"/><path class="cls-1" d="M16.43,7.49h-3V5.15h3V7.49ZM16.33,17.83H13.58V8.67h2.75v9.16Z" transform="translate(-0.48 -4.88)"/><path class="cls-1" d="M21.89,16.23q1.53,0,1.53-.86a0.62,0.62,0,0,0-.34-0.6,11.82,11.82,0,0,0-1.84-.55,6.31,6.31,0,0,1-2.45-1,2.39,2.39,0,0,1-.88-2,2.43,2.43,0,0,1,1.16-2.17A5.2,5.2,0,0,1,22,8.41a4.9,4.9,0,0,1,3,.85,3,3,0,0,1,1.2,2H23.41a1.32,1.32,0,0,0-1.51-.93q-1.23,0-1.23.76a0.63,0.63,0,0,0,.35.57,7.37,7.37,0,0,0,1.55.5l0.33,0.09a8,8,0,0,1,2.25.85,2.2,2.2,0,0,1,1.06,2A2.68,2.68,0,0,1,25,17.34a5.5,5.5,0,0,1-3.1.76,5.15,5.15,0,0,1-3.17-.9,3,3,0,0,1-1.22-2h2.77a1.08,1.08,0,0,0,.53.71A2,2,0,0,0,21.89,16.23Z" transform="translate(-0.48 -4.88)"/><path class="cls-1" d="M33.59,14.78h2.89a4,4,0,0,1-1.6,2.48,5,5,0,0,1-3,.83,4.47,4.47,0,0,1-3.61-1.41,5,5,0,0,1-1-3.35,4.87,4.87,0,0,1,1.44-3.79,4.6,4.6,0,0,1,3.26-1.14,5.1,5.1,0,0,1,3.19,1,3.48,3.48,0,0,1,1.34,2.11H33.57A1.69,1.69,0,0,0,33,10.61a1.52,1.52,0,0,0-1-.33q-1.94,0-1.94,3.12a3.58,3.58,0,0,0,.6,2.25,1.55,1.55,0,0,0,1.23.58A1.69,1.69,0,0,0,33.59,14.78Z" transform="translate(-0.48 -4.88)"/><path class="cls-1" d="M37.41,13.21a4.69,4.69,0,0,1,1.44-3.75,5.06,5.06,0,0,1,3.4-1.06A4.77,4.77,0,0,1,46,9.8a4.92,4.92,0,0,1,1.11,3.42A4.77,4.77,0,0,1,45.65,17a5,5,0,0,1-3.4,1.09,4.72,4.72,0,0,1-3.7-1.41A5,5,0,0,1,37.41,13.21Zm2.84,0a3.84,3.84,0,0,0,.6,2.43,1.74,1.74,0,0,0,1.43.6,1.67,1.67,0,0,0,1.57-.77,4.46,4.46,0,0,0,.44-2.25,3.8,3.8,0,0,0-.58-2.41,1.81,1.81,0,0,0-1.44-.55,1.73,1.73,0,0,0-1.58.76A4.35,4.35,0,0,0,40.24,13.21Z" transform="translate(-0.48 -4.88)"/><path class="cls-2" d="M68.35,5.15h0.72L65.52,17.83H64.46L61,5.8l-3.49,12H56.37L52.82,5.15h0.79l3.33,12,3.5-12h1.07l3.47,12Z" transform="translate(-0.48 -4.88)"/><path class="cls-2" d="M76.79,15.38h0.77a3.4,3.4,0,0,1-1.46,2.06,4.33,4.33,0,0,1-5.49-.77,5.15,5.15,0,0,1-1.07-3.42A5,5,0,0,1,70.87,9.5a3.75,3.75,0,0,1,2.77-1.09,3.69,3.69,0,0,1,3,1.39,5.7,5.7,0,0,1,1.06,3.63H70.27a4.34,4.34,0,0,0,1.23,3.19,3.36,3.36,0,0,0,2.34.85,3.12,3.12,0,0,0,2-.62A2.63,2.63,0,0,0,76.79,15.38Zm-6.5-2.57H77a4.19,4.19,0,0,0-1.16-3A3,3,0,0,0,73.63,9a3,3,0,0,0-2.39,1.11A4.35,4.35,0,0,0,70.29,12.81Z" transform="translate(-0.48 -4.88)"/><path class="cls-2" d="M80.47,17.83h-0.6V5.15h0.74V10.5A3.55,3.55,0,0,1,82,8.94a3.51,3.51,0,0,1,1.9-.53,3.42,3.42,0,0,1,2.87,1.32,5.52,5.52,0,0,1,.93,3.4A5.47,5.47,0,0,1,86.42,17a3.52,3.52,0,0,1-5.83-1ZM83.74,9a2.79,2.79,0,0,0-2.31,1.09,4.89,4.89,0,0,0-.9,3.15,4.78,4.78,0,0,0,1,3.31,3,3,0,0,0,4.54-.32,5.43,5.43,0,0,0,.81-3.15,4.53,4.53,0,0,0-1-3.22A2.83,2.83,0,0,0,83.74,9Z" transform="translate(-0.48 -4.88)"/><path class="cls-2" d="M96.46,15.38h0.77a3.4,3.4,0,0,1-1.46,2.06,4.33,4.33,0,0,1-5.49-.77,5.15,5.15,0,0,1-1.07-3.42A5,5,0,0,1,90.54,9.5a3.75,3.75,0,0,1,2.77-1.09,3.69,3.69,0,0,1,3,1.39,5.7,5.7,0,0,1,1.06,3.63H89.94a4.34,4.34,0,0,0,1.23,3.19,3.36,3.36,0,0,0,2.34.85,3.12,3.12,0,0,0,2-.62A2.63,2.63,0,0,0,96.46,15.38ZM90,12.81h6.67a4.19,4.19,0,0,0-1.16-3A3,3,0,0,0,93.31,9a3,3,0,0,0-2.39,1.11A4.35,4.35,0,0,0,90,12.81Z" transform="translate(-0.48 -4.88)"/><path class="cls-2" d="M106.18,8.67L103,13l3.73,4.83h-0.9l-3.31-4.3-3.17,4.3H98.48L102.08,13,98.64,8.67h0.93l3,3.8,2.77-3.8h0.85Z" transform="translate(-0.48 -4.88)"/></svg>