<?xml version="1.0" encoding="utf-8"?>
<!-- Generator: Adobe Illustrator 19.2.0, SVG Export Plug-In . SVG Version: 6.00 Build 0)  -->
<svg version="1.1" id="Layer_1" xmlns="http://www.w3.org/2000/svg" xmlns:xlink="http://www.w3.org/1999/xlink" x="0px" y="0px"
	 viewBox="0 0 128 27" style="enable-background:new 0 0 128 27;" xml:space="preserve">
<title>logo</title>
<path d="M3.8,17.5c-1.8,0-3.3-1.5-3.3-3.3S2,11,3.8,11s3.3,1.5,3.3,3.3S5.6,17.5,3.8,17.5L3.8,17.5z M20.7,2.2c-2.4,0-2.5,2-6.2,2
	s-4-2-6.2-2C6.4,2.2,5,3.7,5,5.5s1.5,3.3,3.3,3.3c2.4,0,2.5-2,6.2-2s4,2,6.2,2c1.8,0,3.3-1.5,3.3-3.3S22.5,2.2,20.7,2.2z M20.7,19.7
	c-2.4,0-2.5,2-6.2,2s-4-2-6.2-2C6.5,19.6,5,21,4.9,22.8s1.3,3.3,3.1,3.4c0.1,0,0.2,0,0.4,0c2.4,0,2.5-2,6.2-2s4,2,6.2,2
	c1.8,0.1,3.3-1.3,3.4-3.1c0.1-1.8-1.3-3.3-3.1-3.4C21,19.7,20.8,19.7,20.7,19.7z M25.5,11c-2.5,0-2.4,2.1-5.5,2.1l0,0
	c-2.9,0-2.9-2.1-5.6-2.1c-1.7,0.1-3.1,1.5-3.1,3.3s1.5,3.3,3.3,3.3c2.4,0,2.4-2.1,5.4-2.1l0,0c2.9,0,2.9,2.1,5.6,2.1
	c1.7-0.1,3.1-1.5,3.1-3.3C28.8,12.5,27.4,11,25.5,11z"/>
<path d="M49.8,19L49.8,19c-1.3,2.3-3.7,3.7-6.3,3.8c-4.1,0.1-7.5-3.1-7.6-7.2c0-0.2,0-0.3,0-0.5c0-4.2,3.4-7.6,7.7-7.6
	c2.6,0,5,1.4,6.3,3.6l0,0c0.1,0.2,0,0.4-0.1,0.5l-3,1.7c-0.2,0.1-0.4,0-0.5-0.1l0,0c-1-1.5-3-1.9-4.5-0.9s-1.9,3-0.9,4.5
	s3,1.9,4.5,0.9c0.3-0.2,0.6-0.5,0.9-0.9l0,0c0.1-0.2,0.3-0.2,0.5-0.1l0,0l3,1.7C49.9,18.6,50,18.8,49.8,19C49.9,19,49.9,19,49.8,19z
	 M88.9,1.5c-1.3,0-2.3,1-2.3,2.3s1,2.3,2.3,2.3s2.3-1,2.3-2.3l0,0C91.2,2.6,90.2,1.5,88.9,1.5z M91.1,8c0-0.2-0.2-0.4-0.4-0.4h-3.5
	c-0.2,0-0.4,0.2-0.4,0.4v14.2c0,0.2,0.2,0.4,0.4,0.4h3.5c0.2,0,0.4-0.2,0.4-0.4V8z M125.2,1.5c-1.3,0-2.3,1-2.3,2.3s1,2.3,2.3,2.3
	s2.3-1,2.3-2.3l0,0C127.5,2.6,126.5,1.5,125.2,1.5L125.2,1.5L125.2,1.5z M127.3,8c0-0.2-0.2-0.4-0.4-0.4h-3.5
	c-0.2,0-0.4,0.1-0.4,0.3l0,0v14.2c0,0.2,0.2,0.4,0.4,0.4h3.5c0.2,0,0.4-0.2,0.4-0.4V8z M56.4,1.1c0-0.2-0.2-0.4-0.4-0.4l0,0h-3.5
	c-0.2,0-0.4,0.2-0.4,0.4l0,0v21.1c0,0.2,0.2,0.4,0.4,0.4H56c0.2,0,0.4-0.2,0.4-0.4V1.1z M104.1,7.6h-3.2c-0.5,0-0.5-0.3-0.5-0.5
	c0-2.2,0-2,3.6-2c0.2,0,0.4-0.2,0.3-0.4V1.3c0-0.2,0-0.5-0.4-0.5c-2.5,0-7.7-0.5-7.8,6.4c0,0,0,0.4-0.3,0.4h-2.2
	c-0.2,0-0.4,0.2-0.4,0.4v3.5c0,0.2,0.2,0.4,0.4,0.4h2.2c0.3,0,0.4,0,0.4,0.3v10c0,0.2,0.2,0.4,0.4,0.4h3.5c0.2,0,0.4-0.2,0.4-0.4
	v-10c0-0.3,0.1-0.3,0.4-0.3h3.3c0.2,0,0.4-0.2,0.4-0.4V8C104.5,7.8,104.4,7.6,104.1,7.6L104.1,7.6z M73.3,8v14.2
	c0,0.2-0.2,0.4-0.4,0.4h-3.5c-0.4,0-0.4-0.5-0.4-0.5c0-0.2-0.2-0.4-0.3-0.2c-0.9,0.6-1.9,0.9-3,0.9c-4.5,0-7.6-3.3-7.6-7.8
	c0-4.1,3.3-7.5,7.4-7.5c1.1,0,2.1,0.3,3.1,0.8c0.1,0.1,0.3,0,0.3-0.1c0,0,0-0.1,0-0.2c0,0,0-0.5,0.4-0.5h3.4
	C73.1,7.6,73.2,7.7,73.3,8L73.3,8z M69,15.1c0-1.8-1.5-3.3-3.3-3.3c-1.8,0-3.3,1.5-3.3,3.3s1.5,3.3,3.3,3.3
	C67.5,18.4,69,16.9,69,15.1L69,15.1z M79.8,22.6h-3.5c-0.2,0-0.4-0.2-0.4-0.4V8c0-0.2,0.2-0.4,0.4-0.4h3.6c0.4,0,0.4,0.5,0.4,0.5
	c0,0.1,0.1,0.2,0.2,0.3h0.1c0.1,0,0.3-0.1,0.5-0.2c1.1-0.4,2.2-0.6,3.4-0.5c0.4,0,0.4,0.3,0.4,0.5v3.4c0,0.2-0.2,0.4-0.4,0.4l0,0
	c-3.2,0-4.1,0.4-4.3,2v8.3C80.1,22.4,80,22.6,79.8,22.6L79.8,22.6z M120.4,8v14.2c0,0.2-0.2,0.4-0.4,0.4h-3.5
	c-0.4,0-0.4-0.5-0.4-0.5c0-0.2-0.2-0.4-0.3-0.2c-0.9,0.6-1.9,0.9-3,0.9c-4.5,0-7.6-3.3-7.6-7.8c0-4.1,3.3-7.5,7.4-7.5
	c1.1,0,2.1,0.3,3.1,0.8c0.1,0.1,0.3,0,0.3-0.1c0,0,0-0.1,0-0.2c0,0,0-0.5,0.4-0.5h3.5C120.2,7.6,120.4,7.8,120.4,8L120.4,8z
	 M116.2,15.1c0-1.8-1.5-3.3-3.3-3.3s-3.3,1.5-3.3,3.3s1.5,3.3,3.3,3.3S116.2,16.9,116.2,15.1L116.2,15.1L116.2,15.1z"/>
</svg>
