<svg id="Layer_1" data-name="Layer 1" xmlns="http://www.w3.org/2000/svg" viewBox="0 0 994 938.37"><defs><style>.cls-1{fill:#231f20;}.cls-2{fill:#eb2f30;}.cls-3{fill:#818485;}</style></defs><title>sponsor-domain-com-logo-vertical-color</title><g id="layer101"><path class="cls-1" d="M807,940.9c-17.8-3-32.2-17-36.6-35.5-2.3-9.7-1.5-29.5,1.5-37.9,5.3-14.8,16.4-25.1,31.6-29.1,6.4-1.8,21.6-1.8,28,0,16.7,4.4,28.5,16.6,33,34.1,1.9,7.5,1.9,23.8,0,32.8C859.1,930.9,835.4,945.5,807,940.9Zm24.5-16.2c13.8-7.1,21.4-24.6,18.5-42.9-2.9-19.2-14.7-31-31-31.1-16.5-.1-27.7,9.4-32.5,27.8-5.4,20.7,4.6,42.4,22,48.2C814.7,928.7,825.5,927.8,831.5,924.7Z" transform="translate(-3 -3.37)"/><path class="cls-1" d="M147,939.9c-7.5-1.4-18.4-7.4-23.1-12.7-9.1-10.2-13.5-24.9-12.6-42.2,0.7-12.8,3.3-21.6,8.7-29.8,8.6-12.8,21.6-18.6,42-18.6,26.7,0.1,42.7,11.4,48.7,34.7,2.1,8.3,2.1,25.9-.1,35.4-1.8,7.5-6.7,16.7-11.8,22-3.9,4.1-12.9,8.8-20.3,10.8C172,941.1,154.6,941.4,147,939.9Zm20.5-20c8.6-2.4,15.2-13.5,16.2-27.4,1-13.6-2.9-25.4-10.4-31.1-10.5-8-24.4-3.5-30.4,9.9-2.1,4.6-2.4,6.7-2.4,17.7,0,11.6.2,12.9,2.7,18,3.3,6.7,7.3,10.7,12.4,12.5C160.4,921.2,162.4,921.3,167.5,919.9Z" transform="translate(-3 -3.37)"/><path class="cls-1" d="M726.2,939.9c-19.2-2.3-34.4-13.9-41.3-31.7-3.3-8.7-3.9-27.6-1.1-36.9,5.2-16.9,17.2-28.2,35.7-33.4,7.5-2.1,26.6-1.8,33.3.4,5.8,2.1,6,2.7,4.6,12.9l-0.6,4.5-6.2-2.6c-5-2.1-7.8-2.5-15.2-2.6-8.4,0-9.5.2-16.6,3.8-12.8,6.3-19.3,16-20.5,30.7-1.4,16.7,7.1,32.1,21.5,38.8,5.1,2.4,6.8,2.7,16.2,2.6,7.9,0,11.9-.5,16.2-2l5.7-2,0.7,6.3c0.3,3.4.4,6.9,0.1,7.7C757.5,939.4,738.9,941.4,726.2,939.9Z" transform="translate(-3 -3.37)"/><path class="cls-1" d="M3,889V837.7l27.3,0.6c29.2,0.6,36.3,1.6,46.2,6.2A41.11,41.11,0,0,1,99,873.9c1.3,6.9,1.3,21.3,0,28.2-2.4,12.7-11.5,25.1-22.7,30.7-11.5,5.9-15.3,6.4-45.5,6.9L3,940.2V889Zm52.6,27c10.9-4.7,15.7-13.2,15.7-27.3-0.1-7.6-.4-9.5-2.9-14.5-3.2-6.3-9-11.4-15.2-13.2a79.65,79.65,0,0,0-12.9-1.7l-9.3-.6v60.6l9.9-.6C47.9,918.4,52.2,917.6,55.6,916Z" transform="translate(-3 -3.37)"/><path class="cls-1" d="M225.8,889l-0.3-51h43l10.4,32.5c5.7,17.9,10.7,32.2,11,31.9s5.4-14.8,11.2-32.2l10.6-31.7,20.6-.3L353,838V940H325.8l0.4-37.6,0.3-37.5L314,902.4,301.5,940H276.1l-6.6-20.7c-3.7-11.5-9.1-28.2-12.1-37.3L252,865.5l0.6,37.3,0.5,37.2H226Z" transform="translate(-3 -3.37)"/><path class="cls-1" d="M361.2,938.8c0.3-.7,9-23.7,19.4-51.1L399.5,838l17,0.2,17,0.3,19.2,50c10.6,27.4,19.3,50.3,19.3,50.7s-6.8.8-15.1,0.8h-15l-1.3-3.2c-0.7-1.8-2.5-6.8-4-11l-2.8-7.8H397.5l-4,10.8-4,10.7-14.4.3C363.8,940,360.9,939.8,361.2,938.8ZM427,897.3c0-.8-10.1-34.6-10.5-35.1-0.1-.1-2.8,7.3-6,16.5s-6,17.4-6.2,18.1c-0.4.9,2.2,1.2,11.1,1.2C421.8,898,427,897.7,427,897.3Z" transform="translate(-3 -3.37)"/><path class="cls-1" d="M482,889V838h28V940H482V889Z" transform="translate(-3 -3.37)"/><path class="cls-1" d="M529,889V838h35l17,33.8,16.9,33.7-0.6-33.7L596.7,838H623V940H588.5l-15-29.3c-8.2-16-16-31-17.2-33.2l-2.4-4,0.3,33.3,0.3,33.2H529V889Z" transform="translate(-3 -3.37)"/><path class="cls-1" d="M641,927.5V915h25v25H641V927.5Z" transform="translate(-3 -3.37)"/><path class="cls-1" d="M885,889V837.9l12.7,0.3,12.7,0.3,15.3,40.4c8.3,22.2,15.3,40.5,15.5,40.7s7.2-18,15.5-40.4l15.1-40.7,12.6-.3,12.6-.3V940H981l-0.2-42.1-0.3-42.1-16,41.9-16,41.8-7.6.3-7.6.3-16.4-42.8-16.4-42.8-0.3,42.8L900,940H885V889Z" transform="translate(-3 -3.37)"/><path class="cls-1" d="M475,717.4c-1.9-.2-8-0.9-13.5-1.5-105.5-11-202.2-70.8-260.8-161.1a357,357,0,0,1-38.8-307.9A361.31,361.31,0,0,1,222.8,136c10.4-12.9,34.3-37.2,47.7-48.5a357.15,357.15,0,0,1,282-80.4c63,9.1,121.6,34.6,172.3,75.1,15.2,12.2,40.5,37.2,52.5,51.9,43.8,53.7,70.3,116.6,78.9,186.4,1.8,14.7,1.8,66.3,0,80.5-6.2,49.2-20,92.2-42.4,132.8l-5.1,9.2H692V662.9l-7.5,4.5c-41.1,25-87.8,41.1-139.5,48.2C534.1,717.1,483.4,718.4,475,717.4Zm58-96c38.5-4.6,79.6-19.9,113-42.2,58.7-39.1,98.8-98.7,112.4-167.2,3.9-19.4,4.9-30.9,4.9-52,0-30.2-3.8-53.4-13.4-82.5-5.6-16.6-16.4-40-25.4-54.5-14.5-23.4-38.9-51-59.5-67.4A269,269,0,0,0,528.5,99c-12.9-1.4-43.1-1.4-56,0a266,266,0,0,0-87,25.4c-29.2,14.4-52.2,31.1-74.7,54.4-78.9,81.9-96.2,203.6-43.1,304.2,26.7,50.8,72.2,93.5,124.4,117.1Q459,630.25,533,621.4Z" transform="translate(-3 -3.37)"/><path class="cls-1" d="M388,403.3c0-74.7.3-155.7,0.7-180.1l0.6-44.4,74.1,0.5c70.7,0.4,74.6.5,85.6,2.6,44.2,8.3,75.2,29,95.5,63.6,16.2,27.7,23.9,58.7,25.2,102,3.1,104.6-39.7,171.8-120.3,188.7-10.7,2.2-12.4,2.2-86.1,2.6l-75.3.3V403.3ZM521.2,451c12.4-4.6,21.2-16.7,25.7-35,4.4-18,6.4-43.4,5-64.2-3.3-50.8-11.4-75-27.9-83.3-5.7-2.9-16.7-5-21.5-4.1l-3.5.7V454.3l8.3-.6A52.72,52.72,0,0,0,521.2,451Z" transform="translate(-3 -3.37)"/><path class="cls-1" d="M173.1,707.9a32.84,32.84,0,0,1-23.2-17.1c-3.2-5.9-3.4-6.9-3.4-15.3,0-11.2,2.5-17.3,9.6-24,7.4-6.9,12.5-8.8,23.9-8.9,8.3-.1,10.2.2,15,2.5a32.29,32.29,0,0,1,18.8,27.5c1.1,17.6-9.3,31.5-26.2,35.1C180.7,709.1,179.3,709.1,173.1,707.9Zm14.1-8.3a23.4,23.4,0,0,0,14.4-11.8c2.5-4.6,2.9-6.4,2.9-12.8,0-8.3-1.5-12.2-6.9-17.8-6-6.4-14.8-9.3-22.2-7.3A27.48,27.48,0,0,0,156.1,670c-2.8,13.1,6.1,26.9,19.3,30.1C180.2,701.2,182.3,701.1,187.2,699.6Z" transform="translate(-3 -3.37)"/><path class="cls-1" d="M167,675.6c0-16.1,0-16.4,2.3-17,3.7-1,16.2-.7,19.6.5s6.1,5.3,6.1,9.2c0,2.4-3.3,6.7-5.1,6.7-0.6,0-.1,1.2,1,2.6a21.43,21.43,0,0,1,3.2,6.8c0.5,2.2,1.2,4.9,1.5,5.9,0.5,1.4-.2,1.7-4.4,1.7h-5l-1.2-5c-1.3-5.6-2.4-6.7-6.8-7.6l-3.2-.6V692h-8V675.6Zm17-4.4c1.9-1.6,2.1-2.2,1.1-4S183,665,180,665c-4,0-4,0-4,4,0,3.7.2,4,2.9,4A9.26,9.26,0,0,0,184,671.2Z" transform="translate(-3 -3.37)"/><path class="cls-1" d="M773.1,671c-13.2-2.8-25.8-12.5-31.6-24.4-11.4-23.2-1.9-51,20.9-61.7,32.1-15,68,9.5,65.3,44.6-1.4,18.3-14.3,34.9-31.1,40.1C790.2,671.5,778.9,672.2,773.1,671Z" transform="translate(-3 -3.37)"/></g><g id="layer102"><path class="cls-2" d="M475,717.4c-1.9-.2-8-0.9-13.5-1.5-105.5-11-202.2-70.8-260.8-161.1a357,357,0,0,1-38.8-307.9A361.31,361.31,0,0,1,222.8,136c10.4-12.9,34.3-37.2,47.7-48.5a357.15,357.15,0,0,1,282-80.4c63,9.1,121.6,34.6,172.3,75.1,15.2,12.2,40.5,37.2,52.5,51.9,43.8,53.7,70.3,116.6,78.9,186.4,1.8,14.7,1.8,66.3,0,80.5-6.2,49.2-20,92.2-42.4,132.8l-5.1,9.2H692V662.9l-7.5,4.5c-41.1,25-87.8,41.1-139.5,48.2C534.1,717.1,483.4,718.4,475,717.4Zm58-96c38.5-4.6,79.6-19.9,113-42.2,58.7-39.1,98.8-98.7,112.4-167.2,3.9-19.4,4.9-30.9,4.9-52,0-30.2-3.8-53.4-13.4-82.5-5.6-16.6-16.4-40-25.4-54.5-14.5-23.4-38.9-51-59.5-67.4A269,269,0,0,0,528.5,99c-12.9-1.4-43.1-1.4-56,0a266,266,0,0,0-87,25.4c-29.2,14.4-52.2,31.1-74.7,54.4-78.9,81.9-96.2,203.6-43.1,304.2,26.7,50.8,72.2,93.5,124.4,117.1Q459,630.25,533,621.4Z" transform="translate(-3 -3.37)"/><path class="cls-2" d="M388,403.3c0-74.7.3-155.7,0.7-180.1l0.6-44.4,74.1,0.5c70.7,0.4,74.6.5,85.6,2.6,44.2,8.3,75.2,29,95.5,63.6,16.2,27.7,23.9,58.7,25.2,102,3.1,104.6-39.7,171.8-120.3,188.7-10.7,2.2-12.4,2.2-86.1,2.6l-75.3.3V403.3ZM521.2,451c12.4-4.6,21.2-16.7,25.7-35,4.4-18,6.4-43.4,5-64.2-3.3-50.8-11.4-75-27.9-83.3-5.7-2.9-16.7-5-21.5-4.1l-3.5.7V454.3l8.3-.6A52.72,52.72,0,0,0,521.2,451Z" transform="translate(-3 -3.37)"/><path class="cls-2" d="M173.1,707.9a32.84,32.84,0,0,1-23.2-17.1c-3.2-5.9-3.4-6.9-3.4-15.3,0-11.2,2.5-17.3,9.6-24,7.4-6.9,12.5-8.8,23.9-8.9,8.3-.1,10.2.2,15,2.5a32.29,32.29,0,0,1,18.8,27.5c1.1,17.6-9.3,31.5-26.2,35.1C180.7,709.1,179.3,709.1,173.1,707.9Zm14.1-8.3a23.4,23.4,0,0,0,14.4-11.8c2.5-4.6,2.9-6.4,2.9-12.8,0-8.3-1.5-12.2-6.9-17.8-6-6.4-14.8-9.3-22.2-7.3A27.48,27.48,0,0,0,156.1,670c-2.8,13.1,6.1,26.9,19.3,30.1C180.2,701.2,182.3,701.1,187.2,699.6Z" transform="translate(-3 -3.37)"/><path class="cls-2" d="M167,675.6c0-16.1,0-16.4,2.3-17,3.7-1,16.2-.7,19.6.5s6.1,5.3,6.1,9.2c0,2.4-3.3,6.7-5.1,6.7-0.6,0-.1,1.2,1,2.6a21.43,21.43,0,0,1,3.2,6.8c0.5,2.2,1.2,4.9,1.5,5.9,0.5,1.4-.2,1.7-4.4,1.7h-5l-1.2-5c-1.3-5.6-2.4-6.7-6.8-7.6l-3.2-.6V692h-8V675.6Zm17-4.4c1.9-1.6,2.1-2.2,1.1-4S183,665,180,665c-4,0-4,0-4,4,0,3.7.2,4,2.9,4A9.26,9.26,0,0,0,184,671.2Z" transform="translate(-3 -3.37)"/><path class="cls-2" d="M773.1,671c-13.2-2.8-25.8-12.5-31.6-24.4-11.4-23.2-1.9-51,20.9-61.7,32.1-15,68,9.5,65.3,44.6-1.4,18.3-14.3,34.9-31.1,40.1C790.2,671.5,778.9,672.2,773.1,671Z" transform="translate(-3 -3.37)"/></g><g id="layer103"><path class="cls-3" d="M173.1,707.9a32.84,32.84,0,0,1-23.2-17.1c-3.2-5.9-3.4-6.9-3.4-15.3,0-11.2,2.5-17.3,9.6-24,7.4-6.9,12.5-8.8,23.9-8.9,8.3-.1,10.2.2,15,2.5a32.29,32.29,0,0,1,18.8,27.5c1.1,17.6-9.3,31.5-26.2,35.1C180.7,709.1,179.3,709.1,173.1,707.9Zm14.1-8.3a23.4,23.4,0,0,0,14.4-11.8c2.5-4.6,2.9-6.4,2.9-12.8,0-8.3-1.5-12.2-6.9-17.8-6-6.4-14.8-9.3-22.2-7.3A27.48,27.48,0,0,0,156.1,670c-2.8,13.1,6.1,26.9,19.3,30.1C180.2,701.2,182.3,701.1,187.2,699.6Z" transform="translate(-3 -3.37)"/><path class="cls-3" d="M167,675.6c0-16.1,0-16.4,2.3-17,3.7-1,16.2-.7,19.6.5s6.1,5.3,6.1,9.2c0,2.4-3.3,6.7-5.1,6.7-0.6,0-.1,1.2,1,2.6a21.43,21.43,0,0,1,3.2,6.8c0.5,2.2,1.2,4.9,1.5,5.9,0.5,1.4-.2,1.7-4.4,1.7h-5l-1.2-5c-1.3-5.6-2.4-6.7-6.8-7.6l-3.2-.6V692h-8V675.6Zm17-4.4c1.9-1.6,2.1-2.2,1.1-4S183,665,180,665c-4,0-4,0-4,4,0,3.7.2,4,2.9,4A9.26,9.26,0,0,0,184,671.2Z" transform="translate(-3 -3.37)"/></g></svg>