<svg id="Layer_1" data-name="Layer 1" xmlns="http://www.w3.org/2000/svg" viewBox="0 0 360.18 97.41"><defs><style>.cls-1{fill:#100e0f;}</style></defs><title>sponsor-github-logo-black</title><path class="cls-1" d="M177.28,137H147a1.42,1.42,0,0,0-1.41,1.42v14.8a1.42,1.42,0,0,0,1.41,1.42h11.81V173s-2.65.9-10,.9c-8.65,0-20.73-3.16-20.73-29.72s12.58-30.06,24.39-30.06c10.22,0,14.63,1.8,17.43,2.67a1.42,1.42,0,0,0,1.69-1.39L175,101.1a1.32,1.32,0,0,0-.54-1.1c-1.14-.81-8.08-4.7-25.62-4.7-20.21,0-40.93,8.6-40.93,49.92s23.73,47.48,43.73,47.48c16.56,0,26.6-7.08,26.6-7.08a1.22,1.22,0,0,0,.46-1.07V138.4A1.41,1.41,0,0,0,177.28,137Z" transform="translate(-107.91 -95.3)"/><path class="cls-1" d="M333.26,100.25a1.41,1.41,0,0,0-1.4-1.42h-17a1.42,1.42,0,0,0-1.41,1.42v32.93H286.85V100.25a1.41,1.41,0,0,0-1.41-1.42h-17a1.42,1.42,0,0,0-1.41,1.42v89.18a1.42,1.42,0,0,0,1.41,1.43h17a1.42,1.42,0,0,0,1.41-1.43V151.28h26.56l0,38.14a1.42,1.42,0,0,0,1.41,1.43h17.08a1.42,1.42,0,0,0,1.41-1.43V100.25Z" transform="translate(-107.91 -95.3)"/><ellipse class="cls-1" cx="90.54" cy="16.66" rx="10.99" ry="11.1"/><path class="cls-1" d="M208.22,170.61V129.45a1.42,1.42,0,0,0-1.41-1.42h-17a1.63,1.63,0,0,0-1.48,1.59v59c0,1.73,1.08,2.25,2.48,2.25h15.31c1.68,0,2.09-.82,2.09-2.28V170.61Z" transform="translate(-107.91 -95.3)"/><path class="cls-1" d="M398,128.16H381.12a1.42,1.42,0,0,0-1.41,1.43v43.73a19.11,19.11,0,0,1-10.39,3.14c-6.1,0-7.72-2.77-7.72-8.74V129.59a1.42,1.42,0,0,0-1.41-1.43H343a1.42,1.42,0,0,0-1.41,1.43v41c0,17.73,9.88,22.07,23.48,22.07,11.15,0,20.15-6.16,20.15-6.16a35.81,35.81,0,0,0,.62,3.63,1.49,1.49,0,0,0,1.24.77l10.92,0a1.42,1.42,0,0,0,1.41-1.42V129.59A1.42,1.42,0,0,0,398,128.16Z" transform="translate(-107.91 -95.3)"/><path class="cls-1" d="M444.25,126.16a31.8,31.8,0,0,0-16.14,4.29v-30.2a1.41,1.41,0,0,0-1.41-1.42H409.62a1.41,1.41,0,0,0-1.41,1.42v89.18a1.42,1.42,0,0,0,1.41,1.43h11.86a1.41,1.41,0,0,0,1.24-.76,27.79,27.79,0,0,0,.72-4.11s7,6.62,20.22,6.62c15.53,0,24.44-7.88,24.44-35.37S453.87,126.16,444.25,126.16Zm-6.67,50.24a20.28,20.28,0,0,1-9.84-2.84V145.32a22.54,22.54,0,0,1,8.74-2.84c6.09-.55,12,1.29,12,15.82C448.44,173.63,445.79,176.65,437.58,176.41Z" transform="translate(-107.91 -95.3)"/><path class="cls-1" d="M257.2,128H244.42l0-16.89a0.89,0.89,0,0,0-1.07-1H225.91a0.88,0.88,0,0,0-1,.95v17.45s-8.73,2.11-9.32,2.28a1.42,1.42,0,0,0-1,1.36v11a1.42,1.42,0,0,0,1.41,1.42h8.93V171c0,19.6,13.75,21.52,23,21.52A38.89,38.89,0,0,0,258,190.84a1.32,1.32,0,0,0,.8-1.28V177.5a1.44,1.44,0,0,0-1.41-1.42c-0.74,0-2.65.3-4.61,0.3-6.28,0-8.41-2.92-8.41-6.7s0-25.07,0-25.07H257.2a1.42,1.42,0,0,0,1.41-1.42V129.44A1.41,1.41,0,0,0,257.2,128Z" transform="translate(-107.91 -95.3)"/></svg>