<svg id="Art" xmlns="http://www.w3.org/2000/svg" viewBox="0 0 1214.09 130.1"><title>sponsor-google-cloud-platform-logo-black</title><path d="M675.19,168.23q-16.26,0-27.27-11t-11-27.48q0-16.47,11-27.48t27.27-11q16.67,0,27.07,12l-6.59,6.38q-7.51-9.36-20.48-9.37a27.91,27.91,0,0,0-20.33,8.13q-8.29,8.13-8.29,21.3t8.29,21.3a27.9,27.9,0,0,0,20.33,8.13q13.28,0,22.64-10.7l6.59,6.59a35.91,35.91,0,0,1-12.66,9.62A38.72,38.72,0,0,1,675.19,168.23Z" transform="translate(-87.06 -62.88)"/><path d="M722.33,166.58h-9.47V92.89h9.47v73.69Z" transform="translate(-87.06 -62.88)"/><path d="M737.77,122.17q7.31-7.67,18.63-7.67T775,122.17q7.31,7.67,7.31,19.2T775,160.56q-7.31,7.67-18.63,7.67t-18.63-7.67q-7.31-7.67-7.31-19.19T737.77,122.17Zm7.05,32.42a15.93,15.93,0,0,0,23.16,0q4.89-5,4.89-13.23T768,128.14a15.93,15.93,0,0,0-23.16,0q-4.89,5-4.89,13.23T744.82,154.59Z" transform="translate(-87.06 -62.88)"/><path d="M834.72,166.58h-9.06v-7h-0.41a17.58,17.58,0,0,1-6.59,6.12,18.64,18.64,0,0,1-9.37,2.52q-9.47,0-14.36-5.76T790.05,147V116.15h9.47v29.33q0,14.1,12.45,14.1a11.61,11.61,0,0,0,9.57-4.73,17.21,17.21,0,0,0,3.71-10.91V116.15h9.47v50.43Z" transform="translate(-87.06 -62.88)"/><path d="M866.83,168.23q-9.78,0-16.88-7.72t-7.1-19.14q0-11.43,7.1-19.14t16.88-7.72A21.44,21.44,0,0,1,877.17,117a17.5,17.5,0,0,1,6.84,6.18h0.41l-0.41-7V92.89h9.47v73.69h-9.06v-7H884a17.49,17.49,0,0,1-6.84,6.18A21.44,21.44,0,0,1,866.83,168.23Zm1.54-8.65a15.09,15.09,0,0,0,11.37-4.94q4.68-4.94,4.68-13.28t-4.68-13.28a15.45,15.45,0,0,0-22.69.05q-4.74,5-4.73,13.23t4.73,13.23A15.06,15.06,0,0,0,868.37,159.58Z" transform="translate(-87.06 -62.88)"/><path d="M938.77,166.58H929.3V92.89h25.11a23.29,23.29,0,0,1,16.21,6.23,21.42,21.42,0,0,1,0,31.39,23.29,23.29,0,0,1-16.21,6.23H938.77v29.85Zm0-38.9h15.85a12.24,12.24,0,0,0,9.57-4,12.67,12.67,0,0,0,0-17.7,12.24,12.24,0,0,0-9.57-4H938.77v25.73Z" transform="translate(-87.06 -62.88)"/><path d="M995.68,166.58h-9.47V92.89h9.47v73.69Z" transform="translate(-87.06 -62.88)"/><path d="M1022.65,168.23a19.92,19.92,0,0,1-13.43-4.63,15.33,15.33,0,0,1-5.4-12.25,15.14,15.14,0,0,1,6.38-12.92q6.38-4.68,15.75-4.68,8.34,0,13.69,3.09V135.4a11.27,11.27,0,0,0-3.81-8.9,13.69,13.69,0,0,0-9.37-3.34,14.52,14.52,0,0,0-7.46,2,10.08,10.08,0,0,0-4.58,5.35l-8.65-3.71a19.61,19.61,0,0,1,6.9-8.39q5.15-3.86,13.59-3.86,9.67,0,16.06,5.66t6.38,16v30.46h-9.06v-7h-0.41Q1033.56,168.23,1022.65,168.23Zm1.54-8.65a15.42,15.42,0,0,0,10.65-4.37,13.57,13.57,0,0,0,4.79-10.34q-4-3.29-12-3.29-6.9,0-10.39,3a9,9,0,0,0-3.5,7,6.74,6.74,0,0,0,3.19,5.87A12.72,12.72,0,0,0,1024.19,159.58Z" transform="translate(-87.06 -62.88)"/><path d="M1080.18,167.41q-7.93,0-12.09-4.22t-4.17-11.94V124.8h-8.85v-8.65h8.85V100.71h9.47v15.44h12.35v8.65h-12.35v25.73q0,8.23,6.79,8.23a10.11,10.11,0,0,0,4.32-.82l3.29,8.13A19.19,19.19,0,0,1,1080.18,167.41Z" transform="translate(-87.06 -62.88)"/><path d="M1119.91,92.48a19.19,19.19,0,0,1,7.62,1.34l-3.29,8.13a9.72,9.72,0,0,0-4.32-.82,8.54,8.54,0,0,0-6.07,2.21q-2.37,2.21-2.37,6.43v6.38h13.17v8.65h-13.17v41.79H1102V124.8h-9.47v-8.65H1102v-6.69q0-7.72,4.94-12.35T1119.91,92.48Z" transform="translate(-87.06 -62.88)"/><path d="M1135,122.17q7.31-7.67,18.63-7.67t18.63,7.67q7.31,7.67,7.31,19.2t-7.31,19.19q-7.31,7.67-18.63,7.67T1135,160.56q-7.31-7.67-7.31-19.19T1135,122.17Zm7.05,32.42a15.93,15.93,0,0,0,23.16,0q4.89-5,4.89-13.23t-4.89-13.23a15.93,15.93,0,0,0-23.16,0q-4.89,5-4.89,13.23T1142.09,154.59Z" transform="translate(-87.06 -62.88)"/><path d="M1196.69,166.58h-9.47V116.15h9.06v8.23h0.41a12.92,12.92,0,0,1,5.92-6.79,16.94,16.94,0,0,1,8.7-2.68,18,18,0,0,1,7.1,1.24l-3.6,8.85a14.32,14.32,0,0,0-5-.72,12.37,12.37,0,0,0-9.11,4.06,14.62,14.62,0,0,0-4,10.65v27.58Z" transform="translate(-87.06 -62.88)"/><path d="M1224.58,166.58V116.15h9.06v7H1234a17.51,17.51,0,0,1,6.64-6.12,18,18,0,0,1,8.9-2.52q11.73,0,16,9.67a19.7,19.7,0,0,1,17.6-9.67q9,0,13.48,5.71t4.53,15.49v30.88h-9.47V137.15q0-7.62-2.78-10.81t-8.44-3.19a11.19,11.19,0,0,0-9.21,4.73,17.21,17.21,0,0,0-3.65,10.81v27.89h-9.47V137.15q0-7.62-2.78-10.81t-8.44-3.19a11.19,11.19,0,0,0-9.21,4.73,17.21,17.21,0,0,0-3.65,10.81v27.89h-9.47Z" transform="translate(-87.06 -62.88)"/><path d="M321.92,168.29a41.6,41.6,0,0,1-30.16-12.4,41.39,41.39,0,0,1,0-59.59,41.61,41.61,0,0,1,30.16-12.4,40.38,40.38,0,0,1,28.92,11.63l-8.13,8.13a29.31,29.31,0,0,0-20.79-8.23,28.94,28.94,0,0,0-21.46,9,31.2,31.2,0,0,0,0,43.43,29,29,0,0,0,21.46,9q12.87,0,21.3-8.44,5-5,6.28-14.51H321.92V122.29h38.8a37.09,37.09,0,0,1,.62,7.2q0,17-10,27Q340,168.29,321.92,168.29Zm90.16-7.77a28,28,0,0,1-38.7,0,27.71,27.71,0,0,1,0-38.8,28,28,0,0,1,38.7,0A27.71,27.71,0,0,1,412.08,160.52Zm-30.16-7.62a14.81,14.81,0,0,0,21.61,0,17.74,17.74,0,0,0,.05-23.62,15,15,0,0,0-21.72,0A17.74,17.74,0,0,0,381.92,152.9Zm89.64,7.62a28,28,0,0,1-38.7,0,27.71,27.71,0,0,1,0-38.8,28,28,0,0,1,38.7,0A27.71,27.71,0,0,1,471.57,160.52Zm-30.16-7.62a14.81,14.81,0,0,0,21.61,0,17.74,17.74,0,0,0,.05-23.62,15,15,0,0,0-21.72,0A17.74,17.74,0,0,0,441.41,152.9Zm69.27,39.78q-9.06,0-15.23-4.84a28,28,0,0,1-8.85-11.22L497,172.3a17.55,17.55,0,0,0,5.15,6.79,13,13,0,0,0,8.54,2.88q6.79,0,10.65-4.12T525.19,166v-3.91h-0.41q-5,6.17-14.31,6.18-10.4,0-18.22-7.93a26.25,26.25,0,0,1-7.82-19.14,26.55,26.55,0,0,1,7.82-19.3q7.82-8,18.22-8a19.65,19.65,0,0,1,8.39,1.75,16.91,16.91,0,0,1,5.92,4.32h0.41V115.6h11.32v48.78q0,14.2-7.26,21.25T510.68,192.68Zm0.82-35.1a13.29,13.29,0,0,0,10.34-4.68A16.92,16.92,0,0,0,526,141.22a17.26,17.26,0,0,0-4.17-11.84,13.23,13.23,0,0,0-10.34-4.73,14.12,14.12,0,0,0-10.7,4.73,16.66,16.66,0,0,0-4.43,11.84,16.34,16.34,0,0,0,4.43,11.68A14.18,14.18,0,0,0,511.5,157.59Zm45.18-70.81v79.87H544.74V86.78h11.94Zm32.73,81.51a25.94,25.94,0,0,1-19.25-7.82,26.46,26.46,0,0,1-7.72-19.35q0-11.94,7.46-19.56a24.47,24.47,0,0,1,18.17-7.62,23.11,23.11,0,0,1,9.16,1.8,21.51,21.51,0,0,1,7,4.63,31.82,31.82,0,0,1,4.43,5.51,32.65,32.65,0,0,1,2.68,5.35l1.24,3.09-36.33,15q4.22,8.24,13.17,8.23,8.23,0,13.38-7.51l9.26,6.18a30.1,30.1,0,0,1-8.75,8.34A24.84,24.84,0,0,1,589.41,168.29Zm-15.13-28,24.29-10.09a8.41,8.41,0,0,0-3.81-4.17,12.39,12.39,0,0,0-6.28-1.6q-5.25,0-9.83,4.32T574.28,140.3Z" transform="translate(-87.06 -62.88)"/><path d="M179.71,167l-15,26h-36.2a9.76,9.76,0,0,1-8.46-4.9L88.36,132.78a9.76,9.76,0,0,1,0-9.71l12.07-21,14.9,25.89,22.46,39h41.93Z" transform="translate(-87.06 -62.88)"/><path d="M232.14,132.78l-31.71,55.29A9.76,9.76,0,0,1,192,193H167.74l15-26,22.47-39-21.47-36h29.83l18.61,31.18A9.76,9.76,0,0,1,232.14,132.78Z" transform="translate(-87.06 -62.88)"/><path d="M212.53,88.9H137.78l-20.46,35L102.42,98l17.65-30.26a9.76,9.76,0,0,1,8.46-4.9H192a9.76,9.76,0,0,1,8.46,4.9Z" transform="translate(-87.06 -62.88)"/><circle cx="73.18" cy="65.05" r="19.52"/></svg>