<svg id="HERE_Logo_2016" xmlns="http://www.w3.org/2000/svg" viewBox="0 0 283.46 257.95"><defs><style>.cls-1{fill:#5bc4bf;}.cls-2{fill:#313842;}</style></defs><title>sponsor-here-logo-color</title><g id="Coloured"><path class="cls-1" d="M78.29,218.86L39.14,258,0,218.86H78.29Z" transform="translate(0 0)"/><path class="cls-2" d="M272.22,39.94c-7.62,11.39-23.38,31.81-38.58,16.61l35.18-35.08c-1.83-2-4.3-5-6.13-6.8-18.94-19-40.27-19.23-57-2.56C194.57,23.2,191.76,35.72,195,47.67L184.23,35.36c-3.19,1.76-16.68,12.33-6.56,30.3l-12.59-9.18L148.35,73.16l22.11,22.17c-17.3-13.41-35.92-12-50.87,2.87-16.58,16.53-14.71,36.27-1.65,52.5L109.28,142c-10.87-10.9-25.21-9.29-34.92.39C67.78,149,64.54,157.16,64.85,167l-36-36L9.7,150.11l68.59,68.75h38.27L86.78,188.94c-11.59-11.59-7.65-23-4.74-25.91,3.59-3.59,7.8-3.38,12.12.95l38.63,38.74,18.56-18.5-23.69-23.75c16.84,13.66,37,15.2,55.31-3l0.32-.33h0c10.88-10.07,14.07-19.85,14.07-19.85L186.13,126c-7.62,11.39-23.38,31.81-38.58,16.61l35.14-35,23,23.08,19.21-19.15-27.23-27.3c-12.8-12.8-5.25-24.83.08-29.38a56,56,0,0,0,10.82,14.85c17.76,17.8,40.31,21.79,60.49,1.67l0.32-.33h0C280.28,61,283.46,51.19,283.46,51.19Zm-136,91.58c-8.82-10.36-9-16.18-4-21.23,6.15-6.13,13-2.89,20,3.91l0.65,0.65ZM218.38,24.2c6.15-6.13,13-2.89,20,3.91l0.65,0.65L222.34,45.43C213.52,35.08,213.31,29.26,218.38,24.2Z" transform="translate(0 0)"/></g></svg>