<svg id="Layer_1" data-name="Layer 1" xmlns="http://www.w3.org/2000/svg" viewBox="0 0 800 240.74"><title>sponsor-twilio-logo-black</title><rect x="519.21" y="47.11" width="46.9" height="28.94" rx="2.14" ry="2.14"/><path d="M563.17,83.83H481.46a2.93,2.93,0,0,0-2.69,2.07l-10.49,40.15h0l-0.54,2.07L455,85.49a3.06,3.06,0,0,0-2.76-2.05H420.39a3.06,3.06,0,0,0-2.76,2.06l-11.95,40.19h0l-0.61,2.06-0.53-2.08h0l-5.06-19.87-5.06-19.87a2.91,2.91,0,0,0-2.67-2.08H327.52V49.26a2.24,2.24,0,0,0-2.83-1.92L284.37,59.93c-1.21.4-2.14,1-2.14,2.14V83.83H271.59A2.15,2.15,0,0,0,269.45,86v30.63a2.15,2.15,0,0,0,2.14,2.14h10.63v37.52c0,26.54,14.37,38.92,41.11,38.92,11,0,21.75-2.4,28.94-6.19V156.86a1.64,1.64,0,0,0-2.27-1.71,27,27,0,0,1-11.5,2.32c-7.18,0-11-3-11-11.18V118.76h23a2.15,2.15,0,0,0,2.14-2.14V90.75L382.9,191.54a3.07,3.07,0,0,0,2.76,2.05H419.1a3.14,3.14,0,0,0,2.8-2l14.31-44.66,7.28,23.35,6.65,21.3a3.11,3.11,0,0,0,2.78,2h33.63a3.08,3.08,0,0,0,2.77-2.05L520,90.46v101a2.15,2.15,0,0,0,2.14,2.14h41a2.15,2.15,0,0,0,2.14-2.14V86A2.15,2.15,0,0,0,563.17,83.83Z"/><rect x="573.98" y="47.11" width="45.3" height="146.52" rx="2.14" ry="2.14"/><rect x="627.11" y="47.11" width="46.9" height="28.94" rx="2.14" ry="2.14"/><rect x="627.91" y="83.83" width="45.3" height="109.8" rx="2.14" ry="2.14"/><path d="M738.93,81.24c-35.92,0-61.47,26.34-61.47,57.07v0.4c0,30.73,25.34,56.68,61.07,56.68,35.92,0,61.47-26.34,61.47-57.08v-0.4C800,107.18,774.65,81.24,738.93,81.24Zm17.56,57.47c0,10.38-7.38,19-17.56,19-10,0-18-8.58-18-19.36v-0.4c0-10.38,7.38-19,17.56-19,10,0,18,8.58,18,19.36v0.4Z"/><path d="M120.37,0A120.37,120.37,0,1,0,240.74,120.37,120.37,120.37,0,0,0,120.37,0Zm0,209A88.65,88.65,0,1,1,209,120.37,88.65,88.65,0,0,1,120.37,209Z"/><circle cx="150.34" cy="90.39" r="25.03"/><circle cx="150.34" cy="150.34" r="25.03"/><circle cx="90.39" cy="150.34" r="25.03"/><circle cx="90.39" cy="90.39" r="25.03"/></svg>