<svg id="Layer_1" data-name="Layer 1" xmlns="http://www.w3.org/2000/svg" viewBox="0 0 678.1 150.1"><title>sponsor-amazon-alexa-logo-monochrome-black</title><path d="M247.2,124.2c-22.9,16.9-56.2,25.9-84.8,25.9A153.56,153.56,0,0,1,58.8,110.6c-2.2-1.9-.2-4.6,2.3-3.1,29.5,17.2,66,27.5,103.6,27.5a206.54,206.54,0,0,0,79.1-16.2c3.9-1.6,7.2,2.6,3.4,5.4" transform="translate(-2.3)"/><path d="M256.7,113.3c-2.9-3.7-19.4-1.8-26.8-.9-2.2.3-2.6-1.7-.6-3.1,13.1-9.2,34.6-6.6,37.1-3.5s-0.7,24.7-13,35c-1.9,1.6-3.7.7-2.9-1.4,3-6.9,9.1-22.3,6.2-26.1" transform="translate(-2.3)"/><path d="M230.4,44.2v-9a2.2,2.2,0,0,1,2.3-2.3h40.1a2.2,2.2,0,0,1,2.3,2.3v7.7c0,1.3-1.1,3-3,5.6L251.3,78.2c7.7-.2,15.9,1,22.9,4.9a4,4,0,0,1,2.1,3.5v9.5a2.23,2.23,0,0,1-3,2.1,46,46,0,0,0-42.4.1c-1.4.8-2.9-.8-2.9-2.1V87.1a10.74,10.74,0,0,1,1.5-6.2l24.1-34.6h-21a2.13,2.13,0,0,1-2.2-2.1" transform="translate(-2.3)"/><path d="M84,100.1H71.8A2.27,2.27,0,0,1,69.6,98V35.3A2.35,2.35,0,0,1,72,33H83.4a2.27,2.27,0,0,1,2.2,2.1v8.2h0.2c3-7.9,8.6-11.6,16.1-11.6s12.4,3.7,15.9,11.6a17.4,17.4,0,0,1,16.9-11.6,17.17,17.17,0,0,1,14.1,6.9c3.9,5.3,3.1,12.9,3.1,19.6V97.8a2.33,2.33,0,0,1-2.4,2.2H137.2a2.29,2.29,0,0,1-2.2-2.2V64.6c0-2.6.2-9.2-.3-11.7-0.9-4.2-3.7-5.4-7.2-5.4a8.12,8.12,0,0,0-7.3,5.2c-1.3,3.2-1.1,8.4-1.1,12V97.9a2.33,2.33,0,0,1-2.4,2.2H104.5a2.29,2.29,0,0,1-2.2-2.2V64.7c0-7,1.1-17.3-7.5-17.3-8.8,0-8.4,10-8.4,17.3V97.9a2.33,2.33,0,0,1-2.4,2.2" transform="translate(-2.3)"/><path d="M309.7,31.8c18.1,0,27.9,15.6,27.9,35.4,0,19.1-10.8,34.3-27.9,34.3-17.8,0-27.5-15.6-27.5-35s9.9-34.7,27.5-34.7m0.2,12.8c-9,0-9.6,12.3-9.6,19.9s-0.1,24,9.5,24,9.9-13.2,9.9-21.2c0-5.3-.2-11.6-1.8-16.6-1.4-4.4-4.2-6.1-8-6.1" transform="translate(-2.3)"/><path d="M361.2,100.1H349a2.29,2.29,0,0,1-2.2-2.2V35.2a2.29,2.29,0,0,1,2.3-2h11.3a2.36,2.36,0,0,1,2.2,1.8v9.6h0.2c3.4-8.6,8.2-12.7,16.6-12.7,5.5,0,10.8,2,14.2,7.4,3.2,5,3.2,13.5,3.2,19.5V98.2a2.29,2.29,0,0,1-2.3,2H382.3a2.44,2.44,0,0,1-2.2-2v-34c0-6.9.8-16.9-7.7-16.9a8.07,8.07,0,0,0-7.1,5c-1.7,3.8-1.9,7.6-1.9,11.9V98a2.08,2.08,0,0,1-2.2,2.1" transform="translate(-2.3)"/><path d="M220.3,88.7c-2.2-3.1-4.6-5.6-4.6-11.3v-19c0-8,.5-15.4-5.4-21-4.7-4.5-12.5-6.1-18.4-6.1-11.6,0-24.6,4.3-27.3,18.7a2.08,2.08,0,0,0,1.8,2.5l11.8,1.3a2.45,2.45,0,0,0,2.1-2.2c1-4.9,5.1-7.3,9.8-7.3,2.5,0,5.4.9,6.9,3.2,1.7,2.4,1.5,5.9,1.5,8.8v1.6c-7.1.8-16.4,1.3-23,4.2-7.6,3.3-13,10.1-13,20,0,12.6,8,19,18.3,19,8.6,0,13.4-2.1,20.1-8.9,2.2,3.2,2.9,4.7,7,8.1a2.58,2.58,0,0,0,2.9-.3c2.4-2.2,6.9-6,9.5-8.1C221.3,91.1,221.1,89.8,220.3,88.7Zm-24.2-5.6c-1.9,3.4-5,5.6-8.5,5.6-4.7,0-7.4-3.6-7.4-8.9,0-10.4,9.3-12.3,18.2-12.3v2.7h0C198.4,75,198.5,78.9,196.1,83.1Z" transform="translate(-2.3)"/><path d="M60.1,88.7c-2.2-3.1-4.6-5.6-4.6-11.3v-19c0-8,.5-15.4-5.4-21-4.7-4.5-12.5-6.1-18.4-6.1C20.1,31.3,7.1,35.6,4.4,50a2.08,2.08,0,0,0,1.8,2.5L18,53.8a2.45,2.45,0,0,0,2.1-2.2c1-4.9,5.1-7.3,9.8-7.3,2.6,0,5.4.9,6.9,3.2,1.7,2.4,1.5,5.9,1.5,8.8v1.6c-7.1.8-16.4,1.3-23,4.2-7.6,3.3-13,10.1-13,20,0,12.6,8,19,18.3,19,8.6,0,13.4-2.1,20.1-8.9,2.2,3.2,2.9,4.7,7,8.1a2.58,2.58,0,0,0,2.9-.3c2.5-2.2,6.9-6,9.5-8.1C61,91.1,60.9,89.8,60.1,88.7ZM36,83.1c-1.9,3.4-5,5.6-8.5,5.6-4.7,0-7.4-3.6-7.4-8.9,0-10.4,9.3-12.3,18.2-12.3v2.7C38.3,75,38.4,78.9,36,83.1Z" transform="translate(-2.3)"/><path d="M447.8,67.7c-5.3.1-8.9,1-11.7,2.4a10.38,10.38,0,0,0-5.2,9.4c0,6.9,4.5,11.4,11.7,11.4,7.6,0,13.2-4.6,16-7.6v-16Zm11.7,24.7c-5.1,4.8-11.5,8.6-19.8,8.6-12.2,0-21.4-8-21.4-20.8,0-8.9,4.5-14.8,11.3-18,4.6-2.3,10-3.1,16.7-3.4l12.4-.4V54.9c0-9.4-5.8-13.5-13.8-13.5a34.3,34.3,0,0,0-18.1,5.2L422.4,38a47.16,47.16,0,0,1,24.1-6.6c15.1,0,24.6,7.2,24.6,23.2V78.8c0,11.4.4,17.4,1.3,20.8H461.7ZM481.8,0h12.4V83c0,5.1,1.5,6.6,5.1,6.6a15.63,15.63,0,0,0,4.1-.8l2.5,9.7a28.17,28.17,0,0,1-10.3,2c-9.3,0-13.8-5.1-13.8-13.9V0h0Zm67.7,59.8c-0.3-9.3-4.8-18.6-14.8-18.6-9.6,0-15.3,8.4-15.5,18.6h30.3Zm-42.9,6c0-20.3,11.1-34.5,28.1-34.5,17.4,0,27.6,13.4,27.6,34.6V69h-43c0.3,12.5,7.9,21.8,21.1,21.8a34.9,34.9,0,0,0,16.5-4.5l3.9,8.6a42.37,42.37,0,0,1-21.9,6c-22.2.1-32.3-16.1-32.3-35.1m81.2,0.5L564.4,33.1H578l16.9,24.5,17.3-24.5h13.2L601.6,66l23.6,33.6H611.8L594.4,74.7,576.8,99.6H563.4Zm68,1.4c-5.3.1-8.9,1-11.7,2.4a10.38,10.38,0,0,0-5.2,9.4c0,6.9,4.5,11.4,11.7,11.4,7.6,0,13.2-4.6,16-7.6v-16Zm11.7,24.7c-5.1,4.8-11.5,8.6-19.8,8.6-12.2,0-21.4-8-21.4-20.8,0-8.9,4.5-14.8,11.3-18,4.6-2.3,10-3.1,16.7-3.4l12.4-.4V54.9c0-9.4-5.8-13.5-13.8-13.5a34.3,34.3,0,0,0-18.1,5.2L630.4,38a47.16,47.16,0,0,1,24.1-6.6c15.1,0,24.6,7.2,24.6,23.2V78.8c0,11.4.4,17.4,1.3,20.8H669.7Z" transform="translate(-2.3)"/></svg>