<svg id="Layer_1" data-name="Layer 1" xmlns="http://www.w3.org/2000/svg" viewBox="0 0 552.3 144"><defs><style>.cls-1{fill:#00b0b9;}.cls-2{fill:#002a3a;}</style></defs><title>sponsor-fitbit-logo-color</title><path class="cls-1" d="M141.65,68.45a10.81,10.81,0,1,1-10.81-10.81A10.81,10.81,0,0,1,141.65,68.45ZM130.84,87.8A11.24,11.24,0,1,0,142.08,99,11.24,11.24,0,0,0,130.84,87.8Zm0,30.16a11.68,11.68,0,1,0,11.68,11.68A11.68,11.68,0,0,0,130.84,118Zm0,31a11.24,11.24,0,1,0,11.24,11.24A11.24,11.24,0,0,0,130.84,149Zm0,31a10.81,10.81,0,1,0,10.81,10.81A10.81,10.81,0,0,0,130.84,180Zm29.77-93.66A12.68,12.68,0,1,0,173.3,99,12.68,12.68,0,0,0,160.61,86.36Zm0,30.16a13.12,13.12,0,1,0,13.12,13.12A13.12,13.12,0,0,0,160.61,116.53Zm0,31a12.68,12.68,0,1,0,12.68,12.68A12.68,12.68,0,0,0,160.61,147.55Zm30.56-32.47a14.56,14.56,0,1,0,14.56,14.56A14.56,14.56,0,0,0,191.17,115.08ZM100.68,89.24a9.8,9.8,0,1,0,9.8,9.8A9.8,9.8,0,0,0,100.68,89.24Zm0,30.16a10.23,10.23,0,1,0,10.23,10.23A10.23,10.23,0,0,0,100.68,119.41Zm0,31a9.8,9.8,0,1,0,9.8,9.8A9.8,9.8,0,0,0,100.68,150.44ZM70.53,120.85a8.79,8.79,0,1,0,8.79,8.79A8.79,8.79,0,0,0,70.53,120.85Z" transform="translate(-61.73 -57.64)"/><rect class="cls-2" x="252.7" y="53.05" width="12.98" height="80.14" rx="1.9" ry="1.9"/><path class="cls-2" d="M320.92,78.61a8.79,8.79,0,1,0,8.79,8.79A8.8,8.8,0,0,0,320.92,78.61Z" transform="translate(-61.73 -57.64)"/><rect class="cls-2" x="448.75" y="53.05" width="12.98" height="80.14" rx="1.9" ry="1.9"/><path class="cls-2" d="M517,78.61a8.79,8.79,0,1,0,0,17.58A8.79,8.79,0,0,0,517,78.61Z" transform="translate(-61.73 -57.64)"/><path class="cls-2" d="M609.78,184.12a1.68,1.68,0,0,0,.5-1.28v0a1.66,1.66,0,0,0-.14-0.7,1.82,1.82,0,0,0-.36-0.53,2.17,2.17,0,0,0-.81-0.49,3.32,3.32,0,0,0-1.12-.18h-2.58v6.61H606v-2.65h1.53l2.09,2.65h1l-2.2-2.78A2.48,2.48,0,0,0,609.78,184.12Zm-3.74,0v-2.49h1.77A2,2,0,0,1,609,182a1,1,0,0,1,.44.87v0a1.05,1.05,0,0,1-.5.95,2.3,2.3,0,0,1-1.26.32H606Z" transform="translate(-61.73 -57.64)"/><path class="cls-2" d="M607.55,177.85a6.49,6.49,0,1,0,6.49,6.49A6.5,6.5,0,0,0,607.55,177.85Zm0,12.32a5.83,5.83,0,1,1,5.83-5.83A5.83,5.83,0,0,1,607.55,190.17Z" transform="translate(-61.73 -57.64)"/><path class="cls-2" d="M392.09,123.67a1.9,1.9,0,0,0,1.9-1.9v-9.18a1.9,1.9,0,0,0-1.9-1.9H372.51V81.27a1.9,1.9,0,0,0-1.9-1.9h-9.19a1.9,1.9,0,0,0-1.9,1.9v29.42h-9.85a1.9,1.9,0,0,0-1.9,1.9v9.18a1.9,1.9,0,0,0,1.9,1.9h9.85v44.54c0,13.53,9.09,22.62,22.62,22.62h9.94a1.9,1.9,0,0,0,1.9-1.9v-9.18a1.9,1.9,0,0,0-1.9-1.9h-8.79c-6.35,0-10.79-4.56-10.79-11.08V123.67h19.58Z" transform="translate(-61.73 -57.64)"/><path class="cls-2" d="M586.18,123.67a1.9,1.9,0,0,0,1.9-1.9v-9.18a1.9,1.9,0,0,0-1.9-1.9H566.6V81.27a1.9,1.9,0,0,0-1.9-1.9h-9.19a1.9,1.9,0,0,0-1.9,1.9v29.42h-9.85a1.9,1.9,0,0,0-1.9,1.9v9.18a1.9,1.9,0,0,0,1.9,1.9h9.85v44.54c0,13.53,9.09,22.62,22.62,22.62h9.94a1.9,1.9,0,0,0,1.9-1.9v-9.18a1.9,1.9,0,0,0-1.9-1.9h-8.79c-6.35,0-10.79-4.56-10.79-11.08V123.67h19.58Z" transform="translate(-61.73 -57.64)"/><path class="cls-2" d="M258.29,123.67v65.26a1.9,1.9,0,0,0,1.9,1.9h9.18a1.9,1.9,0,0,0,1.9-1.9V123.67h21.6a1.9,1.9,0,0,0,1.9-1.9v-9.18a1.9,1.9,0,0,0-1.9-1.9h-21.6V93c0-6.61,4.64-11.6,10.79-11.6h10.81a1.9,1.9,0,0,0,1.9-1.9V70.35a1.9,1.9,0,0,0-1.9-1.9h-10A24.61,24.61,0,0,0,258.29,93v17.66h-9.85a1.9,1.9,0,0,0-1.9,1.9v9.18a1.9,1.9,0,0,0,1.9,1.9h9.85Z" transform="translate(-61.73 -57.64)"/><path class="cls-2" d="M481.4,120a38.24,38.24,0,0,0-28.47-12c-10,0-20.53,4.45-26.59,10.94V70.35a1.9,1.9,0,0,0-1.9-1.9h-9.2a1.9,1.9,0,0,0-1.9,1.9v80.43c0,29.75,19.88,43.06,39.58,43.06s39.58-13.31,39.58-43.06C492.51,138.48,488.67,127.83,481.4,120Zm-28.47,60.87c-19.6,0-26.59-15.53-26.59-30.07,0-17.86,10.69-29.86,26.59-29.86s26.59,12,26.59,29.86C479.52,165.32,472.53,180.85,452.93,180.85Z" transform="translate(-61.73 -57.64)"/></svg>