<svg id="Horizontal" xmlns="http://www.w3.org/2000/svg" viewBox="0 0 696.78 150.01"><defs><style>.cls-1{fill:#231f20;}</style></defs><title>sponsor-oculus-logo-horizontal-black</title><path class="cls-1" d="M956.16,507.68a33,33,0,0,0-23.65,9.57,34.7,34.7,0,0,0-.16,47.54,33.74,33.74,0,0,0,47.24.16,34.7,34.7,0,0,0,.16-47.54A33,33,0,0,0,956.16,507.68ZM973.78,545a19.68,19.68,0,0,1-1,3.6,17.84,17.84,0,0,1-1.63,3.16,16.69,16.69,0,0,1-2.14,2.66,16.5,16.5,0,0,1-2.63,2.15,17.44,17.44,0,0,1-3.11,1.63,18.78,18.78,0,0,1-3.51,1,19.83,19.83,0,0,1-7.48,0,18.77,18.77,0,0,1-3.5-1,17.41,17.41,0,0,1-3.1-1.65,16.49,16.49,0,0,1-4.74-4.85,18,18,0,0,1-1.61-3.18,19.78,19.78,0,0,1-1-3.6,21.19,21.19,0,0,1,0-7.71,19.77,19.77,0,0,1,1-3.6,18,18,0,0,1,1.63-3.16,16.48,16.48,0,0,1,4.77-4.82,17.44,17.44,0,0,1,3.11-1.63,18.81,18.81,0,0,1,3.51-1,19.83,19.83,0,0,1,7.48,0,18.78,18.78,0,0,1,3.5,1,17.37,17.37,0,0,1,3.1,1.65,16.46,16.46,0,0,1,4.74,4.85,17.91,17.91,0,0,1,1.6,3.18,19.66,19.66,0,0,1,1,3.6A21.16,21.16,0,0,1,973.78,545Z" transform="translate(-611.61 -465)"/><path class="cls-1" d="M832.18,482a75.06,75.06,0,0,0-29.65-14.49,93,93,0,0,0-18.87-2.38c-4.73-.15-9.46-0.11-14.19-0.11h-67.3c-4.73,0-9.47,0-14.2.11a93,93,0,0,0-18.88,2.38,74.49,74.49,0,0,0,0,145A93,93,0,0,0,688,614.89c4.73,0.15,9.46.11,14.19,0.11h67.3c4.73,0,9.46,0,14.2-.11a93,93,0,0,0,18.88-2.38A74.43,74.43,0,0,0,832.18,482Zm-32.85,78.2a26.5,26.5,0,0,1-10.94,4.3,73.09,73.09,0,0,1-11.83.52H695.08a73,73,0,0,1-11.84-.52,26.49,26.49,0,0,1-10.95-4.31,24.45,24.45,0,0,1,0-40.36,26.5,26.5,0,0,1,10.94-4.3,73.09,73.09,0,0,1,11.83-.52h81.48a73,73,0,0,1,11.84.52,26.5,26.5,0,0,1,10.95,4.31A24.45,24.45,0,0,1,799.33,560.18Z" transform="translate(-611.61 -465)"/><path class="cls-1" d="M1225.81,539.23c0,1.76,0,3.58-.13,5.33a29.16,29.16,0,0,1-.41,3.4,16.63,16.63,0,0,1-2.25,5.95,15.14,15.14,0,0,1-12.82,6.66c-5.12.06-10-2-12.73-6.61a18.24,18.24,0,0,1-2.16-6,52.48,52.48,0,0,1-.74-8.61c0-1.86-.06-3.71-0.07-5.57,0-3.16,0-6.44,0-9.6,0-5,0-10.18,0-15.18h-15.2c0,5,0,20.75,0,25.95,0,2.49,0,5,.11,7.52,0.06,1.82.14,3.66,0.3,5.48a34.32,34.32,0,0,0,3.14,12.46c4,8.09,11.83,12.78,20.54,13.81a32.15,32.15,0,0,0,12.79-1.08,25.83,25.83,0,0,0,11.11-6.29c0.14,2,.29,4.16.43,6.16H1241V509h-15.17C1225.83,513,1225.84,535.14,1225.81,539.23Z" transform="translate(-611.61 -465)"/><path class="cls-1" d="M1307.41,547.93c-2.21-6.18-7.6-10-13.28-12.19a65.41,65.41,0,0,0-9.85-2.77c-1.47-.33-2.93-0.64-4.39-1a25.34,25.34,0,0,1-3.66-1.22,9,9,0,0,1-3.46-2.42,4.37,4.37,0,0,1-1-3.3,5.37,5.37,0,0,1,2.12-3.5,9.2,9.2,0,0,1,2.5-1.4,14.53,14.53,0,0,1,3.61-.85,23.44,23.44,0,0,1,7.43.42,32.42,32.42,0,0,1,10.27,4.17l7.6-10.42a38.89,38.89,0,0,0-17-7,37.43,37.43,0,0,0-10.45-.12,30.18,30.18,0,0,0-7.8,2.05,21.54,21.54,0,0,0-8.59,6.26,18.91,18.91,0,0,0-3.57,6.92,16.87,16.87,0,0,0,.1,9.57,15.92,15.92,0,0,0,4.84,7.28c4.74,4.11,11.36,5.61,17.05,6.84,2,0.43,4,.84,6,1.41a19.74,19.74,0,0,1,4.69,1.9,8.06,8.06,0,0,1,2.86,2.71,5.28,5.28,0,0,1,.76,3.25,5.57,5.57,0,0,1-1.19,2.88,8.27,8.27,0,0,1-2.92,2.29,14.73,14.73,0,0,1-4.67,1.31,27.69,27.69,0,0,1-6.77-.05,31.22,31.22,0,0,1-7.16-1.74,36.6,36.6,0,0,1-9.69-5.5l-8.11,10.83a44.29,44.29,0,0,0,16.33,8.66,42.61,42.61,0,0,0,10.16,1.61,39.41,39.41,0,0,0,8.28-.54,29.29,29.29,0,0,0,10.08-3.59,20.74,20.74,0,0,0,5.86-5.16,19.8,19.8,0,0,0,3.91-9.29A17.38,17.38,0,0,0,1307.41,547.93Z" transform="translate(-611.61 -465)"/><path class="cls-1" d="M1038.27,559a20.54,20.54,0,0,1-10.79-.45,16.85,16.85,0,0,1-8.66-6.33,19.64,19.64,0,0,1-3.42-10.23,20.59,20.59,0,0,1,2.18-10.57,15.49,15.49,0,0,1,7.9-7.23,19.7,19.7,0,0,1,4.59-1.34,21.05,21.05,0,0,1,6.11-.14,24.11,24.11,0,0,1,10.16,3.77l9.16-11.63a34.26,34.26,0,0,0-17.94-7.29,36.07,36.07,0,0,0-19.15,3.12,30.44,30.44,0,0,0-14,13.32,36.79,36.79,0,0,0-4.09,19,35,35,0,0,0,6.06,18.41,30.87,30.87,0,0,0,15.5,11.51,36.86,36.86,0,0,0,19.38,1.12,32.6,32.6,0,0,0,17-9.27L1047.83,554A20.52,20.52,0,0,1,1038.27,559Z" transform="translate(-611.61 -465)"/><rect class="cls-1" x="535.39" y="10" width="16" height="98"/><path class="cls-1" d="M1114.16,539.23c0,1.76,0,3.58-.13,5.33a29.17,29.17,0,0,1-.41,3.4,16.63,16.63,0,0,1-2.25,5.95,15.14,15.14,0,0,1-12.82,6.66c-5.12.06-10-2-12.73-6.61a18.24,18.24,0,0,1-2.16-6,52.43,52.43,0,0,1-.74-8.61c0-1.86-.06-3.71-0.07-5.57,0-3.16,0-6.44,0-9.6,0-5,0-10.18,0-15.18h-15.2c0,5,0,20.75,0,25.95,0,2.49,0,5,.11,7.52,0.06,1.82.14,3.66,0.3,5.48a34.32,34.32,0,0,0,3.14,12.46c4,8.09,11.83,12.78,20.54,13.81a32.16,32.16,0,0,0,12.79-1.08,25.83,25.83,0,0,0,11.11-6.29c0.14,2,.29,4.16.43,6.16H1129V509h-14.82C1114.18,513,1114.19,535.14,1114.16,539.23Z" transform="translate(-611.61 -465)"/></svg>