<svg id="Layer_1" data-name="Layer 1" xmlns="http://www.w3.org/2000/svg" viewBox="0 0 783.62 144"><defs><style>.cls-1{fill:#005aaa;}</style></defs><title>sponsor-qualcomm-logo-color</title><path class="cls-1" d="M337.14,166.95a4,4,0,0,1,3.94,3.94v74.48a4,4,0,0,1-3.94,3.77H327a3.77,3.77,0,0,1-3.77-3.6v-6.85c-5.14,7.53-13.87,12.67-26.71,12.67-21.4,0-34.59-14.21-34.59-35.27V170.71a4,4,0,0,1,3.94-3.77H276a3.8,3.8,0,0,1,3.77,3.77v42.46c0,13.7,7.19,22.77,21.4,22.77,13.87,0,22.09-9.42,22.09-22.6V170.71a3.92,3.92,0,0,1,3.77-3.77h10.1m-149-41.27c-34.59,0-62.5,26.88-62.5,62.84s27.91,62.84,62.5,62.84a64.43,64.43,0,0,0,17-2.29L212,266.6a4.41,4.41,0,0,0,4.62,3.08h10.79c2.57,0,4.45-1.71,3.25-5l-8.8-22.94c17.35-10.9,28.83-30.21,28.83-53.26,0-36-27.91-62.84-62.5-62.84m27.21,99.25-7.86-20.49c-0.68-1.71-2.05-3.25-5.14-3.25H192.11c-2.57,0-4.62,1.71-3.42,5l10.38,26.94a45.26,45.26,0,0,1-10.89,1.31c-25.34,0-43.32-19.86-43.32-45.89s18-45.89,43.32-45.89,43.32,19.86,43.32,45.89c0,15.11-6.07,28.14-16.11,36.41M909,245c0.86,2.06-.17,4.11-2.74,4.11H895a4.42,4.42,0,0,1-4.45-3.08l-20.89-56.16-21.23,56.16a4.36,4.36,0,0,1-4.45,3.08h-10.1a4.36,4.36,0,0,1-4.45-3.08L808,189.55l-21.06,56.5a4.56,4.56,0,0,1-4.45,3.08H771.85a4.56,4.56,0,0,1-4.45-3.08l-20.89-56.5-21.57,56.5a4.36,4.36,0,0,1-4.45,3.08h-10.1a4.36,4.36,0,0,1-4.45-3.08l-21.06-56.5-21.06,56.5a4.42,4.42,0,0,1-4.45,3.08h-11c-2.57,0-3.6-2.05-2.74-4.11l28.59-74.82a4.51,4.51,0,0,1,4.45-3.25H691a4.51,4.51,0,0,1,4.45,3.25l20.2,54.62,20.38-54.62a4.51,4.51,0,0,1,4.45-3.25h12.16a4.51,4.51,0,0,1,4.45,3.25l20.2,54.62,20.2-54.62a4.51,4.51,0,0,1,4.45-3.25h12.16a4.51,4.51,0,0,1,4.45,3.25l20.55,54.62,20-54.62a4.51,4.51,0,0,1,4.45-3.25H876a4.51,4.51,0,0,1,4.45,3.25L909,245M435.08,166.94H425a4,4,0,0,0-3.94,3.94v6.85C415.9,170,406,164.55,394.15,164.55c-22.26,0-41.44,17.64-41.44,43.32,0,26,19.18,43.49,41.26,43.49,12,0,21.75-5.48,27.05-13.18v7.19a4,4,0,0,0,3.94,3.77h10.1a3.8,3.8,0,0,0,3.77-3.77V170.88a3.84,3.84,0,0,0-3.77-3.94m-39,68c-14.73,0-25.17-12-25.17-26.88,0-15.07,10.44-26.71,25.17-26.71,14.55,0,25.17,11.64,25.17,26.71,0,14.9-10.62,26.88-25.17,26.88m159.58,2.57c2.23,2.74.34,4.79-.86,5.65-7,5.31-16.27,8.22-26.37,8.22-25.51,0-42.46-18.66-42.46-43.32s17-43.49,42.46-43.49c10.1,0,19.35,2.91,26.37,8.22,1.2,0.86,2.91,2.74.86,5.65l-4.79,6.68c-1.88,2.57-4.11,1.88-6,.68a30.22,30.22,0,0,0-15.92-5c-14.9,0-24.83,12-24.83,27.22s9.93,27.05,24.83,27.05c6.16,0,11.13-2.4,15.58-5,1.88-1,3.94-1.88,6,.86Zm47.6-72.77A42.79,42.79,0,0,0,560.07,208c0,24.66,19.18,43.32,43.15,43.32S646.37,232.7,646.37,208a42.79,42.79,0,0,0-43.15-43.32m0,70C588.49,234.75,578,222.93,578,208c0-15.07,10.44-26.71,25.17-26.71S628.39,193,628.39,208c0,14.9-10.44,26.71-25.17,26.71M470.52,127.91a3.84,3.84,0,0,1,3.77,3.94V245.19a3.84,3.84,0,0,1-3.77,3.94h-10.1a4.1,4.1,0,0,1-3.94-3.94V131.84a4.1,4.1,0,0,1,3.94-3.94h10.1" transform="translate(-125.68 -125.68)"/></svg>